<svg xmlns="http://www.w3.org/2000/svg" viewBox="0 0 800 400">
  <rect width="800" height="400" rx="12" fill="#f8fafc" stroke="#e2e8f0"/>
  <text x="400" y="40" text-anchor="middle" font-family="system-ui,sans-serif" font-size="20" font-weight="bold" fill="#1e293b">งบประมาณรายเดือน (กฎ 50/30/20)</text>
  <circle cx="300" cy="220" r="120" fill="none" stroke="#e2e8f0" stroke-width="2"/>
  <path d="M300,100 A120,120 0 0,1 404,280 L300,220 Z" fill="#6366f1" opacity="0.8"/>
  <path d="M404,280 A120,120 0 0,1 196,280 L300,220 Z" fill="#10b981" opacity="0.8"/>
  <path d="M196,280 A120,120 0 0,1 300,100 L300,220 Z" fill="#f59e0b" opacity="0.8"/>
  <rect x="520" y="130" width="240" height="50" rx="10" fill="#6366f1" opacity="0.1"/>
  <rect x="530" y="145" width="20" height="20" rx="4" fill="#6366f1"/>
  <text x="560" y="155" font-family="system-ui,sans-serif" font-size="14" fill="#1e293b">50% ค่าใช้จ่ายจำเป็น</text>
  <text x="560" y="172" font-family="system-ui,sans-serif" font-size="11" fill="#64748b">ค่าเช่า อาหาร เดินทาง ประกัน</text>
  <rect x="520" y="195" width="240" height="50" rx="10" fill="#10b981" opacity="0.1"/>
  <rect x="530" y="210" width="20" height="20" rx="4" fill="#10b981"/>
  <text x="560" y="220" font-family="system-ui,sans-serif" font-size="14" fill="#1e293b">30% ออม + ลงทุน</text>
  <text x="560" y="237" font-family="system-ui,sans-serif" font-size="11" fill="#64748b">กองทุนฉุกเฉิน SSF/RMF</text>
  <rect x="520" y="260" width="240" height="50" rx="10" fill="#f59e0b" opacity="0.1"/>
  <rect x="530" y="275" width="20" height="20" rx="4" fill="#f59e0b"/>
  <text x="560" y="285" font-family="system-ui,sans-serif" font-size="14" fill="#1e293b">20% ไม่จำเป็น</text>
  <text x="560" y="302" font-family="system-ui,sans-serif" font-size="11" fill="#64748b">ท่องเที่ยว กินข้าวนอกบ้าน</text>
  <text x="400" y="380" text-anchor="middle" font-family="system-ui,sans-serif" font-size="13" fill="#94a3b8">ปรับสัดส่วนตามสถานการณ์ — ฟรีแลนซ์มือใหม่ควรออม 40%</text>
</svg>