<svg width="800" height="400" viewBox="0 0 800 400" xmlns="http://www.w3.org/2000/svg">
  <rect width="800" height="400" fill="#0f172a"/>
  <text x="400" y="35" font-family="system-ui, sans-serif" font-size="20" fill="#f59e0b" font-weight="700" text-anchor="middle">Flowchart ภาษีคริปโตสำหรับฟรีแลนซ์</text>
  <rect x="280" y="50" width="240" height="50" rx="25" fill="#1d4ed8"/>
  <text x="400" y="81" font-family="system-ui, sans-serif" font-size="15" fill="#fff" font-weight="600" text-anchor="middle">รับ Crypto จากลูกค้า</text>
  <line x1="400" y1="100" x2="400" y2="130" stroke="#334155" stroke-width="2"/>
  <polygon points="395,130 405,130 400,140" fill="#334155"/>
  <rect x="270" y="140" width="260" height="50" rx="8" fill="#1e293b" stroke="#f59e0b" stroke-width="1"/>
  <text x="400" y="170" font-family="system-ui, sans-serif" font-size="14" fill="#f59e0b" text-anchor="middle">ประเมินมูลค่า ณ วันรับ (THB)</text>
  <line x1="400" y1="190" x2="400" y2="220" stroke="#334155" stroke-width="2"/>
  <polygon points="395,220 405,220 400,230" fill="#334155"/>
  <rect x="270" y="230" width="260" height="50" rx="8" fill="#1e293b" stroke="#334155" stroke-width="1"/>
  <text x="400" y="257" font-family="system-ui, sans-serif" font-size="14" fill="#94a3b8" text-anchor="middle">ถือไว้หรือขาย/แลก?</text>
  <line x1="270" y1="255" x2="120" y2="255" stroke="#334155" stroke-width="2"/>
  <polygon points="120,250 110,255 120,260" fill="#334155"/>
  <text x="195" y="247" font-family="system-ui, sans-serif" font-size="12" fill="#64748b">ถือไว้</text>
  <rect x="20" y="270" width="190" height="80" rx="8" fill="#14532d"/>
  <text x="115" y="298" font-family="system-ui, sans-serif" font-size="14" fill="#34d399" text-anchor="middle">รายได้ปีนี้</text>
  <text x="115" y="318" font-family="system-ui, sans-serif" font-size="13" fill="#34d399" text-anchor="middle">= มูลค่า ณ วันรับ</text>
  <text x="115" y="338" font-family="system-ui, sans-serif" font-size="12" fill="#64748b" text-anchor="middle">เสียภาษีอัตราก้าวหน้า</text>
  <line x1="530" y1="255" x2="680" y2="255" stroke="#334155" stroke-width="2"/>
  <polygon points="680,250 690,255 680,260" fill="#334155"/>
  <text x="605" y="247" font-family="system-ui, sans-serif" font-size="12" fill="#64748b">ขาย/แลก</text>
  <rect x="590" y="230" width="190" height="100" rx="8" fill="#450a0a"/>
  <text x="685" y="260" font-family="system-ui, sans-serif" font-size="14" fill="#ef4444" text-anchor="middle">Capital Gain Tax</text>
  <text x="685" y="280" font-family="system-ui, sans-serif" font-size="13" fill="#94a3b8" text-anchor="middle">กำไร = ราคาขาย</text>
  <text x="685" y="298" font-family="system-ui, sans-serif" font-size="13" fill="#94a3b8" text-anchor="middle">— ราคาซื้อ</text>
  <text x="685" y="316" font-family="system-ui, sans-serif" font-size="13" fill="#ef4444" text-anchor="middle">ภาษี 15%</text>
  <rect x="100" y="370" width="600" height="25" rx="6" fill="#1e293b"/>
  <text x="400" y="387" font-family="system-ui, sans-serif" font-size="13" fill="#94a3b8" text-anchor="middle">ทุก Transaction ต้องบันทึก: วันที่, จำนวน Crypto, มูลค่า THB, ค่าธรรมเนียม</text>
</svg>
