<svg width="800" height="400" viewBox="0 0 800 400" xmlns="http://www.w3.org/2000/svg">
  <rect width="800" height="400" fill="#0f172a"/>
  <text x="400" y="35" font-family="system-ui, sans-serif" font-size="20" fill="#f8fafc" text-anchor="middle" font-weight="700">Checklist เริ่มต้นฟรีแลนซ์</text>
  <rect x="40" y="55" width="340" height="40" rx="6" fill="#1e293b" stroke="#34d399" stroke-width="1.5"/>
  <text x="60" y="81" font-family="system-ui, sans-serif" font-size="14" fill="#34d399">✅ 1. ระบุทักษะและกลุ่มเป้าหมาย</text>
  <rect x="40" y="105" width="340" height="40" rx="6" fill="#1e293b" stroke="#34d399" stroke-width="1.5"/>
  <text x="60" y="131" font-family="system-ui, sans-serif" font-size="14" fill="#34d399">✅ 2. สร้าง Portfolio ออนไลน์</text>
  <rect x="40" y="155" width="340" height="40" rx="6" fill="#1e293b" stroke="#34d399" stroke-width="1.5"/>
  <text x="60" y="181" font-family="system-ui, sans-serif" font-size="14" fill="#34d399">✅ 3. ตั้งราคาค่าบริการ</text>
  <rect x="40" y="205" width="340" height="40" rx="6" fill="#1e293b" stroke="#34d399" stroke-width="1.5"/>
  <text x="60" y="231" font-family="system-ui, sans-serif" font-size="14" fill="#34d399">✅ 4. เตรียมสัญญาและ Invoice</text>
  <rect x="40" y="255" width="340" height="40" rx="6" fill="#1e293b" stroke="#34d399" stroke-width="1.5"/>
  <text x="60" y="281" font-family="system-ui, sans-serif" font-size="14" fill="#34d399">✅ 5. แยกบัญชีธุรกิจ-ส่วนตัว</text>
  <rect x="420" y="55" width="340" height="40" rx="6" fill="#1e293b" stroke="#60a5fa" stroke-width="1.5"/>
  <text x="440" y="81" font-family="system-ui, sans-serif" font-size="14" fill="#60a5fa">📋 6. จัดการประกันสังคม</text>
  <rect x="420" y="105" width="340" height="40" rx="6" fill="#1e293b" stroke="#60a5fa" stroke-width="1.5"/>
  <text x="440" y="131" font-family="system-ui, sans-serif" font-size="14" fill="#60a5fa">📋 7. วางแผนภาษี</text>
  <rect x="420" y="155" width="340" height="40" rx="6" fill="#1e293b" stroke="#60a5fa" stroke-width="1.5"/>
  <text x="440" y="181" font-family="system-ui, sans-serif" font-size="14" fill="#60a5fa">📋 8. สร้าง Emergency Fund</text>
  <rect x="420" y="205" width="340" height="40" rx="6" fill="#1e293b" stroke="#60a5fa" stroke-width="1.5"/>
  <text x="440" y="231" font-family="system-ui, sans-serif" font-size="14" fill="#60a5fa">📋 9. สมัครแพลตฟอร์มหางาน</text>
  <rect x="420" y="255" width="340" height="40" rx="6" fill="#1e293b" stroke="#60a5fa" stroke-width="1.5"/>
  <text x="440" y="281" font-family="system-ui, sans-serif" font-size="14" fill="#60a5fa">📋 10. เริ่มหาลูกค้า 3 คนแรก</text>
  <rect x="40" y="320" width="720" height="55" rx="8" fill="#1e293b" stroke="#a78bfa" stroke-width="1"/>
  <text x="400" y="352" font-family="system-ui, sans-serif" font-size="16" fill="#a78bfa" text-anchor="middle" font-weight="600">ทำครบ 10 ข้อ = พร้อมเริ่มต้นเป็นฟรีแลนซ์ 🚀</text>
</svg>