<svg width="800" height="400" viewBox="0 0 800 400" xmlns="http://www.w3.org/2000/svg">
  <rect width="800" height="400" fill="#0f172a"/>
  <text x="400" y="35" font-family="system-ui, sans-serif" font-size="20" fill="#f8fafc" text-anchor="middle" font-weight="700">รายได้เฉลี่ยฟรีแลนซ์ไทยแยกตามสาย (บาท/เดือน)</text>
  <text x="50" y="80" font-family="system-ui, sans-serif" font-size="12" fill="#94a3b8">Developer</text>
  <rect x="150" y="65" width="480" height="22" rx="4" fill="#a78bfa" opacity="0.7"/>
  <text x="640" y="82" font-family="system-ui, sans-serif" font-size="12" fill="#a78bfa">40K-200K+</text>
  <text x="50" y="115" font-family="system-ui, sans-serif" font-size="12" fill="#94a3b8">Designer</text>
  <rect x="150" y="100" width="400" height="22" rx="4" fill="#60a5fa" opacity="0.7"/>
  <text x="560" y="117" font-family="system-ui, sans-serif" font-size="12" fill="#60a5fa">30K-150K</text>
  <text x="50" y="150" font-family="system-ui, sans-serif" font-size="12" fill="#94a3b8">Marketing</text>
  <rect x="150" y="135" width="360" height="22" rx="4" fill="#34d399" opacity="0.7"/>
  <text x="520" y="152" font-family="system-ui, sans-serif" font-size="12" fill="#34d399">25K-120K</text>
  <text x="50" y="185" font-family="system-ui, sans-serif" font-size="12" fill="#94a3b8">นักเขียน</text>
  <rect x="150" y="170" width="280" height="22" rx="4" fill="#f59e0b" opacity="0.7"/>
  <text x="440" y="187" font-family="system-ui, sans-serif" font-size="12" fill="#f59e0b">15K-80K</text>
  <text x="50" y="220" font-family="system-ui, sans-serif" font-size="12" fill="#94a3b8">ช่างภาพ</text>
  <rect x="150" y="205" width="300" height="22" rx="4" fill="#ef4444" opacity="0.7"/>
  <text x="460" y="222" font-family="system-ui, sans-serif" font-size="12" fill="#ef4444">20K-100K</text>
  <text x="50" y="255" font-family="system-ui, sans-serif" font-size="12" fill="#94a3b8">Video</text>
  <rect x="150" y="240" width="340" height="22" rx="4" fill="#a78bfa" opacity="0.5"/>
  <text x="500" y="257" font-family="system-ui, sans-serif" font-size="12" fill="#a78bfa">25K-120K</text>
  <text x="50" y="290" font-family="system-ui, sans-serif" font-size="12" fill="#94a3b8">นักแปล</text>
  <rect x="150" y="275" width="240" height="22" rx="4" fill="#60a5fa" opacity="0.5"/>
  <text x="400" y="292" font-family="system-ui, sans-serif" font-size="12" fill="#60a5fa">15K-60K</text>
  <text x="50" y="325" font-family="system-ui, sans-serif" font-size="12" fill="#94a3b8">VA</text>
  <rect x="150" y="310" width="200" height="22" rx="4" fill="#34d399" opacity="0.5"/>
  <text x="360" y="327" font-family="system-ui, sans-serif" font-size="12" fill="#34d399">15K-50K</text>
  <rect x="40" y="350" width="720" height="35" rx="6" fill="#1e293b"/>
  <text x="400" y="373" font-family="system-ui, sans-serif" font-size="12" fill="#64748b" text-anchor="middle">*ข้อมูลประมาณการจากตลาดฟรีแลนซ์ไทย 2569 ขึ้นอยู่กับประสบการณ์และทักษะ</text>
</svg>