<svg xmlns="http://www.w3.org/2000/svg" viewBox="0 0 800 400">
  <rect width="800" height="400" rx="12" fill="#0f172a"/>
  <text x="400" y="30" text-anchor="middle" font-family="system-ui,sans-serif" font-size="16" font-weight="bold" fill="#f8fafc">เปรียบเทียบค่าธรรมเนียมจริง (รับเงิน 10,000 บาท)</text>
  <g font-family="system-ui,sans-serif">
    <g font-size="11" fill="#94a3b8">
      <text x="50" y="65">ช่องทาง</text>
      <text x="250" y="65" text-anchor="middle">ค่าธรรมเนียม</text>
      <text x="420" y="65" text-anchor="middle">ได้รับจริง</text>
      <text x="580" y="65" text-anchor="middle">รอเงิน</text>
      <text x="720" y="65" text-anchor="middle">สกุลเงิน</text>
    </g>
    <line x1="30" y1="75" x2="770" y2="75" stroke="#334155"/>
    <g font-size="12" fill="#cbd5e1">
      <text x="50" y="105" fill="#f59e0b" font-weight="bold">PromptPay</text>
      <text x="250" y="105" text-anchor="middle" fill="#34d399">0 บาท</text>
      <text x="420" y="105" text-anchor="middle" fill="#34d399">10,000</text>
      <text x="580" y="105" text-anchor="middle">ทันที</text>
      <text x="720" y="105" text-anchor="middle">THB</text>
      <text x="50" y="145" fill="#60a5fa" font-weight="bold">PayPal</text>
      <text x="250" y="145" text-anchor="middle" fill="#ef4444">401 บาท</text>
      <text x="420" y="145" text-anchor="middle">9,599</text>
      <text x="580" y="145" text-anchor="middle">3-5 วัน</text>
      <text x="720" y="145" text-anchor="middle">40+</text>
      <text x="50" y="185" fill="#a78bfa" font-weight="bold">Stripe</text>
      <text x="250" y="185" text-anchor="middle" fill="#ef4444">376 บาท</text>
      <text x="420" y="185" text-anchor="middle">9,624</text>
      <text x="580" y="185" text-anchor="middle">2-7 วัน</text>
      <text x="720" y="185" text-anchor="middle">135+</text>
      <text x="50" y="225" fill="#34d399" font-weight="bold">Wise</text>
      <text x="250" y="225" text-anchor="middle" fill="#fbbf24">50-150 บาท</text>
      <text x="420" y="225" text-anchor="middle">9,850-9,950</text>
      <text x="580" y="225" text-anchor="middle">1-2 วัน</text>
      <text x="720" y="225" text-anchor="middle">40+</text>
      <text x="50" y="265" fill="#fb923c" font-weight="bold">GB Prime Pay</text>
      <text x="250" y="265" text-anchor="middle" fill="#ef4444">290-350 บาท</text>
      <text x="420" y="265" text-anchor="middle">9,650-9,710</text>
      <text x="580" y="265" text-anchor="middle">T+2</text>
      <text x="720" y="265" text-anchor="middle">THB</text>
      <text x="50" y="305" fill="#f472b6" font-weight="bold">โอนธนาคาร</text>
      <text x="250" y="305" text-anchor="middle" fill="#34d399">0-25 บาท</text>
      <text x="420" y="305" text-anchor="middle" fill="#34d399">9,975-10,000</text>
      <text x="580" y="305" text-anchor="middle">ทันที</text>
      <text x="720" y="305" text-anchor="middle">THB</text>
    </g>
    <rect x="30" y="330" width="740" height="35" rx="6" fill="#064e3b"/>
    <text x="400" y="353" text-anchor="middle" font-size="12" font-weight="bold" fill="#34d399">ลูกค้าไทย → PromptPay | ลูกค้าต่างชาติ → Wise หรือ Stripe</text>
  </g>
  <text x="400" y="390" text-anchor="middle" font-family="system-ui,sans-serif" font-size="11" fill="#64748b">finlance.co</text>
</svg>