<svg xmlns="http://www.w3.org/2000/svg" viewBox="0 0 800 400">
  <rect width="800" height="400" rx="12" fill="#f8fafc" stroke="#e2e8f0"/>
  <text x="400" y="30" text-anchor="middle" font-family="system-ui,sans-serif" font-size="16" font-weight="bold" fill="#1e293b">รายได้ตามฤดูกาลของ Photographer ฟรีแลนซ์</text>
  <g font-family="system-ui,sans-serif">
    <text x="55" y="350" text-anchor="middle" font-size="9" fill="#64748b">ม.ค.</text>
    <text x="120" y="350" text-anchor="middle" font-size="9" fill="#64748b">ก.พ.</text>
    <text x="185" y="350" text-anchor="middle" font-size="9" fill="#64748b">มี.ค.</text>
    <text x="250" y="350" text-anchor="middle" font-size="9" fill="#64748b">เม.ย.</text>
    <text x="315" y="350" text-anchor="middle" font-size="9" fill="#64748b">พ.ค.</text>
    <text x="380" y="350" text-anchor="middle" font-size="9" fill="#64748b">มิ.ย.</text>
    <text x="445" y="350" text-anchor="middle" font-size="9" fill="#64748b">ก.ค.</text>
    <text x="510" y="350" text-anchor="middle" font-size="9" fill="#64748b">ส.ค.</text>
    <text x="575" y="350" text-anchor="middle" font-size="9" fill="#64748b">ก.ย.</text>
    <text x="640" y="350" text-anchor="middle" font-size="9" fill="#64748b">ต.ค.</text>
    <text x="705" y="350" text-anchor="middle" font-size="9" fill="#64748b">พ.ย.</text>
    <text x="770" y="350" text-anchor="middle" font-size="9" fill="#64748b">ธ.ค.</text>
    <rect x="35" y="180" width="40" height="150" rx="4" fill="#f59e0b"/>
    <rect x="100" y="140" width="40" height="190" rx="4" fill="#34d399"/>
    <rect x="165" y="160" width="40" height="170" rx="4" fill="#34d399"/>
    <rect x="230" y="240" width="40" height="90" rx="4" fill="#fca5a5"/>
    <rect x="295" y="260" width="40" height="70" rx="4" fill="#fca5a5"/>
    <rect x="360" y="250" width="40" height="80" rx="4" fill="#fca5a5"/>
    <rect x="425" y="270" width="40" height="60" rx="4" fill="#fca5a5"/>
    <rect x="490" y="260" width="40" height="70" rx="4" fill="#fca5a5"/>
    <rect x="555" y="240" width="40" height="90" rx="4" fill="#f59e0b"/>
    <rect x="620" y="130" width="40" height="200" rx="4" fill="#34d399"/>
    <rect x="685" y="90" width="40" height="240" rx="4" fill="#34d399"/>
    <rect x="750" y="60" width="40" height="270" rx="4" fill="#34d399"/>
    <text x="115" y="130" text-anchor="middle" font-size="9" fill="#166534" font-weight="bold">Wedding</text>
    <text x="115" y="130" text-anchor="middle" font-size="9" fill="#166534" font-weight="bold">Season</text>
    <text x="380" y="55" text-anchor="middle" font-size="10" fill="#dc2626" font-weight="bold">Low Season (ฝน)</text>
    <rect x="295" y="45" width="170" height="18" rx="4" fill="#fef2f2" stroke="#fecaca"/>
    <text x="380" y="58" text-anchor="middle" font-size="9" fill="#dc2626">รายได้ลด 40-60%</text>
    <text x="730" y="55" text-anchor="middle" font-size="9" fill="#166534" font-weight="bold">Year-end</text>
    <text x="730" y="68" text-anchor="middle" font-size="9" fill="#166534" font-weight="bold">Peak</text>
  </g>
  <rect x="30" y="365" width="740" height="25" rx="6" fill="#fef3c7" stroke="#fde68a"/>
  <text x="400" y="382" text-anchor="middle" font-family="system-ui,sans-serif" font-size="10" font-weight="bold" fill="#92400e">กลยุทธ์: เก็บเงิน High Season 40% → ใช้จ่ายช่วง Low Season + เรียน Upskill</text>
</svg>