<svg xmlns="http://www.w3.org/2000/svg" viewBox="0 0 800 400">
  <rect width="800" height="400" rx="12" fill="#f8fafc" stroke="#e2e8f0"/>
  <text x="400" y="30" text-anchor="middle" font-family="system-ui,sans-serif" font-size="16" font-weight="bold" fill="#1e293b">เปรียบเทียบ 7 เครื่องมือจัดการโปรเจกต์</text>
  <rect x="30" y="50" width="100" height="30" rx="4" fill="#059669" opacity="0.15"/>
  <text x="80" y="70" text-anchor="middle" font-family="system-ui,sans-serif" font-size="10" font-weight="bold" fill="#059669">เครื่องมือ</text>
  <rect x="140" y="50" width="100" height="30" rx="4" fill="#059669" opacity="0.15"/>
  <text x="190" y="70" text-anchor="middle" font-family="system-ui,sans-serif" font-size="10" font-weight="bold" fill="#059669">ราคา/เดือน</text>
  <rect x="250" y="50" width="120" height="30" rx="4" fill="#059669" opacity="0.15"/>
  <text x="310" y="70" text-anchor="middle" font-family="system-ui,sans-serif" font-size="10" font-weight="bold" fill="#059669">จุดเด่น</text>
  <rect x="380" y="50" width="120" height="30" rx="4" fill="#059669" opacity="0.15"/>
  <text x="440" y="70" text-anchor="middle" font-family="system-ui,sans-serif" font-size="10" font-weight="bold" fill="#059669">เหมาะกับ</text>
  <rect x="510" y="50" width="130" height="30" rx="4" fill="#059669" opacity="0.15"/>
  <text x="575" y="70" text-anchor="middle" font-family="system-ui,sans-serif" font-size="10" font-weight="bold" fill="#059669">Free Plan</text>
  <rect x="650" y="50" width="120" height="30" rx="4" fill="#059669" opacity="0.15"/>
  <text x="710" y="70" text-anchor="middle" font-family="system-ui,sans-serif" font-size="10" font-weight="bold" fill="#059669">คะแนน</text>
  <g font-family="system-ui,sans-serif" font-size="10" fill="#64748b">
    <rect x="30" y="85" width="740" height="38" rx="4" fill="white" stroke="#e2e8f0"/>
    <text x="80" y="108" text-anchor="middle" font-weight="bold" fill="#1e293b">Notion</text>
    <text x="190" y="108" text-anchor="middle">ฟรี / $10</text>
    <text x="310" y="108" text-anchor="middle">All-in-one</text>
    <text x="440" y="108" text-anchor="middle">ฟรีแลนซ์ทุกสาย</text>
    <text x="575" y="108" text-anchor="middle" fill="#16a34a">ดีมาก</text>
    <text x="710" y="108" text-anchor="middle" font-weight="bold" fill="#f59e0b">★★★★★</text>
    <rect x="30" y="127" width="740" height="38" rx="4" fill="#f8fafc" stroke="#e2e8f0"/>
    <text x="80" y="150" text-anchor="middle" font-weight="bold" fill="#1e293b">Trello</text>
    <text x="190" y="150" text-anchor="middle">ฟรี / $5</text>
    <text x="310" y="150" text-anchor="middle">Kanban ง่าย</text>
    <text x="440" y="150" text-anchor="middle">มือใหม่</text>
    <text x="575" y="150" text-anchor="middle" fill="#16a34a">ดี</text>
    <text x="710" y="150" text-anchor="middle" font-weight="bold" fill="#f59e0b">★★★★</text>
    <rect x="30" y="169" width="740" height="38" rx="4" fill="white" stroke="#e2e8f0"/>
    <text x="80" y="192" text-anchor="middle" font-weight="bold" fill="#1e293b">Asana</text>
    <text x="190" y="192" text-anchor="middle">ฟรี / $11</text>
    <text x="310" y="192" text-anchor="middle">Timeline view</text>
    <text x="440" y="192" text-anchor="middle">ทีมเล็ก</text>
    <text x="575" y="192" text-anchor="middle" fill="#16a34a">ดี</text>
    <text x="710" y="192" text-anchor="middle" font-weight="bold" fill="#f59e0b">★★★★</text>
    <rect x="30" y="211" width="740" height="38" rx="4" fill="#f8fafc" stroke="#e2e8f0"/>
    <text x="80" y="234" text-anchor="middle" font-weight="bold" fill="#1e293b">ClickUp</text>
    <text x="190" y="234" text-anchor="middle">ฟรี / $7</text>
    <text x="310" y="234" text-anchor="middle">ฟีเจอร์เยอะ</text>
    <text x="440" y="234" text-anchor="middle">Power user</text>
    <text x="575" y="234" text-anchor="middle" fill="#16a34a">ดี</text>
    <text x="710" y="234" text-anchor="middle" font-weight="bold" fill="#f59e0b">★★★★</text>
    <rect x="30" y="253" width="740" height="38" rx="4" fill="white" stroke="#e2e8f0"/>
    <text x="80" y="276" text-anchor="middle" font-weight="bold" fill="#1e293b">Todoist</text>
    <text x="190" y="276" text-anchor="middle">ฟรี / $4</text>
    <text x="310" y="276" text-anchor="middle">To-do ง่ายสุด</text>
    <text x="440" y="276" text-anchor="middle">คนทำงานคนเดียว</text>
    <text x="575" y="276" text-anchor="middle" fill="#16a34a">ดี</text>
    <text x="710" y="276" text-anchor="middle" font-weight="bold" fill="#f59e0b">★★★★</text>
    <rect x="30" y="295" width="740" height="38" rx="4" fill="#f8fafc" stroke="#e2e8f0"/>
    <text x="80" y="318" text-anchor="middle" font-weight="bold" fill="#1e293b">Monday</text>
    <text x="190" y="318" text-anchor="middle">ฟรี / $9</text>
    <text x="310" y="318" text-anchor="middle">Dashboard สวย</text>
    <text x="440" y="318" text-anchor="middle">ทีม 3-10 คน</text>
    <text x="575" y="318" text-anchor="middle" fill="#f59e0b">จำกัด</text>
    <text x="710" y="318" text-anchor="middle" font-weight="bold" fill="#f59e0b">★★★</text>
    <rect x="30" y="337" width="740" height="38" rx="4" fill="white" stroke="#e2e8f0"/>
    <text x="80" y="360" text-anchor="middle" font-weight="bold" fill="#1e293b">Google WS</text>
    <text x="190" y="360" text-anchor="middle">ฟรี</text>
    <text x="310" y="360" text-anchor="middle">ใช้อยู่แล้ว</text>
    <text x="440" y="360" text-anchor="middle">งบจำกัดมาก</text>
    <text x="575" y="360" text-anchor="middle" fill="#16a34a">ฟรีทั้งหมด</text>
    <text x="710" y="360" text-anchor="middle" font-weight="bold" fill="#f59e0b">★★★</text>
  </g>
  <text x="400" y="393" text-anchor="middle" font-family="system-ui,sans-serif" font-size="11" fill="#94a3b8">แนะนำ: เริ่มจาก Notion (ฟรี + ครบครัน) แล้วค่อยย้ายถ้าต้องการฟีเจอร์เฉพาะทาง</text>
</svg>