<svg xmlns="http://www.w3.org/2000/svg" viewBox="0 0 800 400">
  <rect width="800" height="400" rx="12" fill="#f8fafc" stroke="#e2e8f0"/>
  <text x="400" y="30" text-anchor="middle" font-family="system-ui,sans-serif" font-size="16" font-weight="bold" fill="#1e293b">เปรียบเทียบบัญชีออมทรัพย์ดอกเบี้ยสูง 2569</text>
  <rect x="30" y="50" width="100" height="30" rx="4" fill="#059669" opacity="0.15"/>
  <text x="80" y="70" text-anchor="middle" font-family="system-ui,sans-serif" font-size="10" font-weight="bold" fill="#059669">ธนาคาร</text>
  <rect x="140" y="50" width="120" height="30" rx="4" fill="#059669" opacity="0.15"/>
  <text x="200" y="70" text-anchor="middle" font-family="system-ui,sans-serif" font-size="10" font-weight="bold" fill="#059669">ชื่อบัญชี</text>
  <rect x="270" y="50" width="100" height="30" rx="4" fill="#059669" opacity="0.15"/>
  <text x="320" y="70" text-anchor="middle" font-family="system-ui,sans-serif" font-size="10" font-weight="bold" fill="#059669">ดอกเบี้ย</text>
  <rect x="380" y="50" width="100" height="30" rx="4" fill="#059669" opacity="0.15"/>
  <text x="430" y="70" text-anchor="middle" font-family="system-ui,sans-serif" font-size="10" font-weight="bold" fill="#059669">เงื่อนไข</text>
  <rect x="490" y="50" width="130" height="30" rx="4" fill="#059669" opacity="0.15"/>
  <text x="555" y="70" text-anchor="middle" font-family="system-ui,sans-serif" font-size="10" font-weight="bold" fill="#059669">เหมาะกับ</text>
  <rect x="630" y="50" width="140" height="30" rx="4" fill="#059669" opacity="0.15"/>
  <text x="700" y="70" text-anchor="middle" font-family="system-ui,sans-serif" font-size="10" font-weight="bold" fill="#059669">ฝาก 100K/ปี</text>
  <g font-family="system-ui,sans-serif" font-size="10" fill="#64748b">
    <rect x="30" y="85" width="740" height="40" rx="4" fill="white" stroke="#e2e8f0"/>
    <text x="80" y="109" text-anchor="middle" font-weight="bold" fill="#1e293b">TTB</text>
    <text x="200" y="109" text-anchor="middle">ME Save</text>
    <text x="320" y="109" text-anchor="middle" font-weight="bold" fill="#059669">1.60%</text>
    <text x="430" y="109" text-anchor="middle">ไม่จำกัด</text>
    <text x="555" y="109" text-anchor="middle">Emergency Fund</text>
    <text x="700" y="109" text-anchor="middle" fill="#059669">1,600 บาท</text>
    <rect x="30" y="130" width="740" height="40" rx="4" fill="#f8fafc" stroke="#e2e8f0"/>
    <text x="80" y="154" text-anchor="middle" font-weight="bold" fill="#1e293b">KBank</text>
    <text x="200" y="154" text-anchor="middle">MAKE by KBank</text>
    <text x="320" y="154" text-anchor="middle" font-weight="bold" fill="#059669">1.50%</text>
    <text x="430" y="154" text-anchor="middle">Goal Saving</text>
    <text x="555" y="154" text-anchor="middle">เป้าหมายชัด</text>
    <text x="700" y="154" text-anchor="middle" fill="#059669">1,500 บาท</text>
    <rect x="30" y="175" width="740" height="40" rx="4" fill="white" stroke="#e2e8f0"/>
    <text x="80" y="199" text-anchor="middle" font-weight="bold" fill="#1e293b">SCB</text>
    <text x="200" y="199" text-anchor="middle">EasyApp Savings</text>
    <text x="320" y="199" text-anchor="middle" font-weight="bold" fill="#059669">1.50%</text>
    <text x="430" y="199" text-anchor="middle">ผ่านแอป</text>
    <text x="555" y="199" text-anchor="middle">ใช้ SCB อยู่แล้ว</text>
    <text x="700" y="199" text-anchor="middle" fill="#059669">1,500 บาท</text>
    <rect x="30" y="220" width="740" height="40" rx="4" fill="#f8fafc" stroke="#e2e8f0"/>
    <text x="80" y="244" text-anchor="middle" font-weight="bold" fill="#1e293b">ออมสิน</text>
    <text x="200" y="244" text-anchor="middle">เผื่อเรียก Premium</text>
    <text x="320" y="244" text-anchor="middle" font-weight="bold" fill="#059669">1.70%</text>
    <text x="430" y="244" text-anchor="middle">ขั้นต่ำ 10K</text>
    <text x="555" y="244" text-anchor="middle">ฝากก้อนใหญ่</text>
    <text x="700" y="244" text-anchor="middle" fill="#059669">1,700 บาท</text>
    <rect x="30" y="265" width="740" height="40" rx="4" fill="white" stroke="#e2e8f0"/>
    <text x="80" y="289" text-anchor="middle" font-weight="bold" fill="#1e293b">ธ.ออมทรัพย์</text>
    <text x="200" y="289" text-anchor="middle">ทั่วไป</text>
    <text x="320" y="289" text-anchor="middle" fill="#dc2626">0.25%</text>
    <text x="430" y="289" text-anchor="middle">-</text>
    <text x="555" y="289" text-anchor="middle" fill="#dc2626">ไม่แนะนำ</text>
    <text x="700" y="289" text-anchor="middle" fill="#dc2626">250 บาท</text>
  </g>
  <rect x="30" y="320" width="740" height="55" rx="8" fill="#ecfdf5" stroke="#a7f3d0"/>
  <text x="400" y="345" text-anchor="middle" font-family="system-ui,sans-serif" font-size="12" font-weight="bold" fill="#059669">แนะนำ: เปิด 2 บัญชี — 1 สำหรับ Emergency Fund + 1 สำหรับเงินหมุนเวียนธุรกิจ</text>
  <text x="400" y="365" text-anchor="middle" font-family="system-ui,sans-serif" font-size="11" fill="#64748b">ดอกเบี้ยเงินฝากเกิน 20,000 บาท/ปี ต้องเสียภาษี 15%</text>
</svg>