<svg xmlns="http://www.w3.org/2000/svg" viewBox="0 0 800 400">
  <rect width="800" height="400" rx="12" fill="#f8fafc" stroke="#e2e8f0"/>
  <text x="400" y="40" text-anchor="middle" font-family="system-ui,sans-serif" font-size="20" font-weight="bold" fill="#1e293b">อัตราภาษีเงินได้บุคคลธรรมดา (ก้าวหน้า)</text>
  <g transform="translate(80,60)">
    <rect x="0" y="0" width="640" height="38" rx="6" fill="#10b981" opacity="0.2"/><text x="10" y="25" font-family="system-ui,sans-serif" font-size="14" fill="#1e293b">0 - 150,000</text><text x="400" y="25" font-family="system-ui,sans-serif" font-size="14" font-weight="bold" fill="#10b981">ยกเว้น</text><rect x="500" y="10" width="0" height="18" rx="4" fill="#10b981"/>
    <rect x="0" y="42" width="640" height="38" rx="6" fill="#6366f1" opacity="0.1"/><text x="10" y="67" font-family="system-ui,sans-serif" font-size="14" fill="#1e293b">150,001 - 300,000</text><text x="400" y="67" font-family="system-ui,sans-serif" font-size="14" font-weight="bold" fill="#6366f1">5%</text><rect x="500" y="52" width="32" height="18" rx="4" fill="#6366f1" opacity="0.6"/>
    <rect x="0" y="84" width="640" height="38" rx="6" fill="#6366f1" opacity="0.15"/><text x="10" y="109" font-family="system-ui,sans-serif" font-size="14" fill="#1e293b">300,001 - 500,000</text><text x="400" y="109" font-family="system-ui,sans-serif" font-size="14" font-weight="bold" fill="#6366f1">10%</text><rect x="500" y="94" width="64" height="18" rx="4" fill="#6366f1" opacity="0.6"/>
    <rect x="0" y="126" width="640" height="38" rx="6" fill="#8b5cf6" opacity="0.1"/><text x="10" y="151" font-family="system-ui,sans-serif" font-size="14" fill="#1e293b">500,001 - 750,000</text><text x="400" y="151" font-family="system-ui,sans-serif" font-size="14" font-weight="bold" fill="#8b5cf6">15%</text><rect x="500" y="136" width="96" height="18" rx="4" fill="#8b5cf6" opacity="0.6"/>
    <rect x="0" y="168" width="640" height="38" rx="6" fill="#f59e0b" opacity="0.1"/><text x="10" y="193" font-family="system-ui,sans-serif" font-size="14" fill="#1e293b">750,001 - 1,000,000</text><text x="400" y="193" font-family="system-ui,sans-serif" font-size="14" font-weight="bold" fill="#f59e0b">20%</text><rect x="500" y="178" width="128" height="18" rx="4" fill="#f59e0b" opacity="0.6"/>
    <rect x="0" y="210" width="640" height="38" rx="6" fill="#ef4444" opacity="0.1"/><text x="10" y="235" font-family="system-ui,sans-serif" font-size="14" fill="#1e293b">1,000,001 - 2,000,000</text><text x="400" y="235" font-family="system-ui,sans-serif" font-size="14" font-weight="bold" fill="#ef4444">25%</text><rect x="500" y="220" width="140" height="18" rx="4" fill="#ef4444" opacity="0.5"/>
    <rect x="0" y="252" width="640" height="38" rx="6" fill="#ef4444" opacity="0.15"/><text x="10" y="277" font-family="system-ui,sans-serif" font-size="14" fill="#1e293b">2,000,001 - 5,000,000</text><text x="400" y="277" font-family="system-ui,sans-serif" font-size="14" font-weight="bold" fill="#ef4444">30%</text><rect x="500" y="262" width="140" height="18" rx="4" fill="#ef4444" opacity="0.6"/>
    <rect x="0" y="294" width="640" height="38" rx="6" fill="#ef4444" opacity="0.2"/><text x="10" y="319" font-family="system-ui,sans-serif" font-size="14" fill="#1e293b">มากกว่า 5,000,000</text><text x="400" y="319" font-family="system-ui,sans-serif" font-size="14" font-weight="bold" fill="#ef4444">35%</text><rect x="500" y="304" width="140" height="18" rx="4" fill="#ef4444" opacity="0.7"/>
  </g>
</svg>