<svg xmlns="http://www.w3.org/2000/svg" viewBox="0 0 800 400">
  <rect width="800" height="400" rx="12" fill="#f8fafc" stroke="#e2e8f0"/>
  <text x="400" y="30" text-anchor="middle" font-family="system-ui,sans-serif" font-size="16" font-weight="bold" fill="#1e293b">เปรียบเทียบอัตราค่าแปลตามสาย (บาท/คำ)</text>
  <g font-family="system-ui,sans-serif">
    <text x="140" y="75" text-anchor="end" font-size="11" fill="#64748b">ทั่วไป</text>
    <rect x="150" y="60" width="120" height="25" rx="4" fill="#94a3b8"/><text x="280" y="78" font-size="10" fill="#64748b">0.8-1.5</text>
    <text x="140" y="115" text-anchor="end" font-size="11" fill="#64748b">IT/Tech</text>
    <rect x="150" y="100" width="250" height="25" rx="4" fill="#60a5fa"/><text x="410" y="118" font-size="10" fill="#64748b">2-5</text>
    <text x="140" y="155" text-anchor="end" font-size="11" fill="#64748b">การแพทย์</text>
    <rect x="150" y="140" width="300" height="25" rx="4" fill="#34d399"/><text x="460" y="158" font-size="10" fill="#64748b">3-6</text>
    <text x="140" y="195" text-anchor="end" font-size="11" fill="#64748b">กฎหมาย</text>
    <rect x="150" y="180" width="400" height="25" rx="4" fill="#f59e0b"/><text x="560" y="198" font-size="10" fill="#64748b">3-8</text>
    <text x="140" y="235" text-anchor="end" font-size="11" fill="#64748b">การเงิน</text>
    <rect x="150" y="220" width="350" height="25" rx="4" fill="#a78bfa"/><text x="510" y="238" font-size="10" fill="#64748b">3-7</text>
    <text x="140" y="275" text-anchor="end" font-size="11" fill="#64748b">Marketing</text>
    <rect x="150" y="260" width="500" height="25" rx="4" fill="#ec4899"/><text x="660" y="278" font-size="10" fill="#64748b">3-10 (Transcreation)</text>
    <text x="140" y="315" text-anchor="end" font-size="11" fill="#64748b">Localization</text>
    <rect x="150" y="300" width="500" height="25" rx="4" fill="#ef4444"/><text x="660" y="318" font-size="10" fill="#64748b">5-10+</text>
  </g>
  <rect x="30" y="345" width="740" height="40" rx="6" fill="#ecfdf5" stroke="#a7f3d0"/>
  <text x="400" y="370" text-anchor="middle" font-family="system-ui,sans-serif" font-size="11" font-weight="bold" fill="#059669">Specialize ในสายเฉพาะ = ค่าแปลสูงขึ้น 3-10 เท่าจากแปลทั่วไป</text>
</svg>