<svg width="1200" height="630" viewBox="0 0 1200 630" xmlns="http://www.w3.org/2000/svg">
  <rect width="1200" height="630" fill="#0f172a"/>
  <rect x="0" y="0" width="1200" height="4" fill="#34d399"/>
  <circle cx="600" cy="315" r="400" fill="#34d399" opacity="0.03"/>
  <rect x="100" y="80" width="120" height="180" rx="8" fill="#1e293b" stroke="#334155" stroke-width="1"/>
  <rect x="100" y="160" width="120" height="100" rx="0" fill="#ef4444" opacity="0.3"/>
  <text x="160" y="270" font-family="system-ui, sans-serif" font-size="12" fill="#94a3b8" text-anchor="middle">มือใหม่</text>
  <text x="160" y="150" font-family="system-ui, sans-serif" font-size="14" fill="#ef4444" text-anchor="middle">15-30K</text>
  <rect x="260" y="80" width="120" height="180" rx="8" fill="#1e293b" stroke="#334155" stroke-width="1"/>
  <rect x="260" y="120" width="120" height="140" rx="0" fill="#f59e0b" opacity="0.3"/>
  <text x="320" y="270" font-family="system-ui, sans-serif" font-size="12" fill="#94a3b8" text-anchor="middle">1-2 ปี</text>
  <text x="320" y="115" font-family="system-ui, sans-serif" font-size="14" fill="#f59e0b" text-anchor="middle">30-60K</text>
  <rect x="420" y="80" width="120" height="180" rx="8" fill="#1e293b" stroke="#334155" stroke-width="1"/>
  <rect x="420" y="100" width="120" height="160" rx="0" fill="#34d399" opacity="0.3"/>
  <text x="480" y="270" font-family="system-ui, sans-serif" font-size="12" fill="#94a3b8" text-anchor="middle">3-5 ปี</text>
  <text x="480" y="95" font-family="system-ui, sans-serif" font-size="14" fill="#34d399" text-anchor="middle">60-120K</text>
  <rect x="580" y="80" width="120" height="180" rx="8" fill="#1e293b" stroke="#334155" stroke-width="1"/>
  <rect x="580" y="85" width="120" height="175" rx="0" fill="#a78bfa" opacity="0.3"/>
  <text x="640" y="270" font-family="system-ui, sans-serif" font-size="12" fill="#94a3b8" text-anchor="middle">5+ ปี</text>
  <text x="640" y="80" font-family="system-ui, sans-serif" font-size="14" fill="#a78bfa" text-anchor="middle">120K+</text>
  <text x="80" y="400" font-family="system-ui, sans-serif" font-size="42" fill="#f8fafc" font-weight="800">รายได้ฟรีแลนซ์ไทย</text>
  <text x="80" y="450" font-family="system-ui, sans-serif" font-size="42" fill="#34d399" font-weight="800">เฉลี่ยเท่าไหร่ 2569</text>
  <text x="80" y="560" font-family="system-ui, sans-serif" font-size="18" fill="#64748b">finlance.co — คู่มือสำหรับฟรีแลนซ์ไทย</text>
</svg>