<svg xmlns="http://www.w3.org/2000/svg" viewBox="0 0 1200 630">
  <rect width="1200" height="630" rx="16" fill="#0f172a"/>
  <text x="600" y="55" text-anchor="middle" font-family="system-ui,sans-serif" font-size="22" font-weight="bold" fill="#f8fafc">เปรียบเทียบบัญชีธนาคารสำหรับฟรีแลนซ์ 2569</text>
  <g font-family="system-ui,sans-serif">
    <rect x="60" y="80" width="250" height="480" rx="12" fill="#1e293b" stroke="#334155"/>
    <rect x="60" y="80" width="250" height="50" rx="12" fill="#1a5276"/>
    <text x="185" y="110" text-anchor="middle" font-size="16" font-weight="bold" fill="white">กรุงไทย</text>
    <g font-size="12" fill="#cbd5e1">
      <text x="80" y="155">ออมทรัพย์: 0.25%</text>
      <text x="80" y="180">โอนฟรี: Krungthai NEXT</text>
      <text x="80" y="205">PromptPay: ฟรี</text>
      <text x="80" y="230">จุดเด่น: รับเงินราชการ</text>
      <text x="80" y="255">PromptPay ดี, app ใช้ง่าย</text>
    </g>
    <rect x="340" y="80" width="250" height="480" rx="12" fill="#1e293b" stroke="#334155"/>
    <rect x="340" y="80" width="250" height="50" rx="12" fill="#4a1a7a"/>
    <text x="465" y="110" text-anchor="middle" font-size="16" font-weight="bold" fill="white">SCB</text>
    <g font-size="12" fill="#cbd5e1">
      <text x="360" y="155">ออมทรัพย์: 0.25%</text>
      <text x="360" y="180">โอนฟรี: SCB EASY</text>
      <text x="360" y="205">PromptPay: ฟรี</text>
      <text x="360" y="230">จุดเด่น: app ดีที่สุด</text>
      <text x="360" y="255">SCB EASY ใช้งานง่าย</text>
    </g>
    <rect x="620" y="80" width="250" height="480" rx="12" fill="#1e293b" stroke="#334155"/>
    <rect x="620" y="80" width="250" height="50" rx="12" fill="#006428"/>
    <text x="745" y="110" text-anchor="middle" font-size="16" font-weight="bold" fill="white">กสิกร</text>
    <g font-size="12" fill="#cbd5e1">
      <text x="640" y="155">ออมทรัพย์: 0.25%</text>
      <text x="640" y="180">โอนฟรี: K PLUS</text>
      <text x="640" y="205">PromptPay: ฟรี</text>
      <text x="640" y="230">จุดเด่น: K PLUS ดี</text>
      <text x="640" y="255">ระบบ QR payment ครบ</text>
    </g>
    <rect x="900" y="80" width="250" height="480" rx="12" fill="#1e293b" stroke="#334155"/>
    <rect x="900" y="80" width="250" height="50" rx="12" fill="#f97316"/>
    <text x="1025" y="110" text-anchor="middle" font-size="16" font-weight="bold" fill="white">ธนชาต/TTB</text>
    <g font-size="12" fill="#cbd5e1">
      <text x="920" y="155">ME Save: 1.5-2.0%</text>
      <text x="920" y="180">ดอกเบี้ยสูง!</text>
      <text x="920" y="205">โอนฟรี: ttb touch</text>
      <text x="920" y="230">จุดเด่น: ดอกเบี้ยดีที่สุด</text>
      <text x="920" y="255">ME Save สำหรับเงินออม</text>
    </g>
  </g>
  <rect x="60" y="510" width="1080" height="60" rx="10" fill="#064e3b"/>
  <text x="600" y="540" text-anchor="middle" font-family="system-ui,sans-serif" font-size="14" font-weight="bold" fill="#34d399">แนะนำ: เปิด 2 บัญชี — 1 สำหรับรับเงิน (ธนาคารใหญ่) + 1 สำหรับออม (ดอกเบี้ยสูง)</text>
  <text x="600" y="610" text-anchor="middle" font-family="system-ui,sans-serif" font-size="14" fill="#64748b">finlance.co</text>
</svg>