<svg xmlns="http://www.w3.org/2000/svg" viewBox="0 0 1200 630">
  <defs>
    <linearGradient id="bg" x1="0" y1="0" x2="1" y2="1"><stop offset="0%" stop-color="#14b8a6"/><stop offset="100%" stop-color="#0d9488"/></linearGradient>
  </defs>
  <rect width="1200" height="630" fill="url(#bg)"/>
  <rect x="60" y="80" width="500" height="470" rx="24" fill="white" opacity="0.1"/>
  <text x="310" y="140" text-anchor="middle" font-family="system-ui,sans-serif" font-size="18" font-weight="bold" fill="white">บันทึกบัญชีเบื้องต้น</text>
  <rect x="100" y="165" width="420" height="35" rx="6" fill="white" opacity="0.2"/>
  <text x="140" y="189" font-family="system-ui,sans-serif" font-size="12" font-weight="bold" fill="white">วันที่</text>
  <text x="230" y="189" font-family="system-ui,sans-serif" font-size="12" font-weight="bold" fill="white">รายการ</text>
  <text x="370" y="189" font-family="system-ui,sans-serif" font-size="12" font-weight="bold" fill="white">รับ</text>
  <text x="450" y="189" font-family="system-ui,sans-serif" font-size="12" font-weight="bold" fill="white">จ่าย</text>
  <rect x="100" y="205" width="420" height="35" rx="6" fill="white" opacity="0.1"/>
  <text x="140" y="228" font-family="system-ui,sans-serif" font-size="11" fill="white">1 มี.ค.</text>
  <text x="230" y="228" font-family="system-ui,sans-serif" font-size="11" fill="white">ค่าออกแบบเว็บ</text>
  <text x="370" y="228" font-family="system-ui,sans-serif" font-size="11" fill="#34d399">+25,000</text>
  <rect x="100" y="245" width="420" height="35" rx="6" fill="white" opacity="0.1"/>
  <text x="140" y="268" font-family="system-ui,sans-serif" font-size="11" fill="white">5 มี.ค.</text>
  <text x="230" y="268" font-family="system-ui,sans-serif" font-size="11" fill="white">ค่า Adobe CC</text>
  <text x="450" y="268" font-family="system-ui,sans-serif" font-size="11" fill="#fbbf24">-1,700</text>
  <rect x="100" y="285" width="420" height="35" rx="6" fill="white" opacity="0.1"/>
  <text x="140" y="308" font-family="system-ui,sans-serif" font-size="11" fill="white">10 มี.ค.</text>
  <text x="230" y="308" font-family="system-ui,sans-serif" font-size="11" fill="white">ค่าเขียนบทความ</text>
  <text x="370" y="308" font-family="system-ui,sans-serif" font-size="11" fill="#34d399">+8,000</text>
  <rect x="640" y="80" width="480" height="470" rx="24" fill="white" opacity="0.08"/>
  <text x="880" y="180" text-anchor="middle" font-family="system-ui,sans-serif" font-size="32" font-weight="bold" fill="white">ทำบัญชี</text>
  <text x="880" y="225" text-anchor="middle" font-family="system-ui,sans-serif" font-size="32" font-weight="bold" fill="white">เบื้องต้น</text>
  <text x="880" y="295" text-anchor="middle" font-family="system-ui,sans-serif" font-size="18" fill="white" opacity="0.85">สำหรับฟรีแลนซ์</text>
  <rect x="780" y="400" width="200" height="50" rx="25" fill="white" opacity="0.2"/>
  <text x="880" y="432" text-anchor="middle" font-family="system-ui,sans-serif" font-size="16" font-weight="bold" fill="white">Finlance.co</text>
</svg>