<svg width="1200" height="630" viewBox="0 0 1200 630" xmlns="http://www.w3.org/2000/svg">
  <rect width="1200" height="630" fill="#0f172a"/>
  <rect x="0" y="0" width="1200" height="4" fill="#f59e0b"/>
  <circle cx="100" cy="100" r="200" fill="#f59e0b" opacity="0.04"/>
  <circle cx="1100" cy="530" r="250" fill="#60a5fa" opacity="0.04"/>
  <rect x="80" y="180" width="480" height="60" rx="8" fill="#1e293b"/>
  <rect x="80" y="260" width="380" height="60" rx="8" fill="#1e293b"/>
  <rect x="80" y="340" width="430" height="60" rx="8" fill="#1e293b"/>
  <rect x="80" y="420" width="350" height="60" rx="8" fill="#1e293b"/>
  <rect x="80" y="180" width="8" height="60" rx="4" fill="#f59e0b"/>
  <rect x="80" y="260" width="8" height="60" rx="4" fill="#34d399"/>
  <rect x="80" y="340" width="8" height="60" rx="4" fill="#60a5fa"/>
  <rect x="80" y="420" width="8" height="60" rx="4" fill="#a78bfa"/>
  <text x="110" y="217" font-family="system-ui, sans-serif" font-size="20" fill="#f59e0b" font-weight="600">จดทะเบียนพาณิชย์อิเล็กทรอนิกส์</text>
  <text x="110" y="297" font-family="system-ui, sans-serif" font-size="20" fill="#34d399" font-weight="600">ใครต้องจดบ้าง? เกณฑ์และเงื่อนไข</text>
  <text x="110" y="377" font-family="system-ui, sans-serif" font-size="20" fill="#60a5fa" font-weight="600">ขั้นตอนการจดออนไลน์ผ่าน DBD</text>
  <text x="110" y="457" font-family="system-ui, sans-serif" font-size="20" fill="#a78bfa" font-weight="600">เอกสารที่ต้องเตรียม &amp; ค่าธรรมเนียม</text>
  <rect x="680" y="140" width="440" height="350" rx="16" fill="#1e293b" stroke="#f59e0b" stroke-width="2"/>
  <text x="900" y="200" font-family="system-ui, sans-serif" font-size="18" fill="#94a3b8" text-anchor="middle">ค่าธรรมเนียม</text>
  <text x="900" y="260" font-family="system-ui, sans-serif" font-size="52" fill="#f59e0b" font-weight="700" text-anchor="middle">ฟรี</text>
  <text x="900" y="300" font-family="system-ui, sans-serif" font-size="18" fill="#64748b" text-anchor="middle">จดออนไลน์ไม่มีค่าใช้จ่าย</text>
  <line x1="720" y1="330" x2="1080" y2="330" stroke="#334155" stroke-width="1"/>
  <text x="900" y="370" font-family="system-ui, sans-serif" font-size="16" fill="#94a3b8" text-anchor="middle">ทำได้ที่ DBD e-Registration</text>
  <text x="900" y="400" font-family="system-ui, sans-serif" font-size="16" fill="#94a3b8" text-anchor="middle">ใช้เวลา 1-3 วันทำการ</text>
  <text x="900" y="440" font-family="system-ui, sans-serif" font-size="16" fill="#94a3b8" text-anchor="middle">ไม่ต้องเดินทางไปสำนักงาน</text>
  <text x="80" y="120" font-family="system-ui, sans-serif" font-size="42" fill="#f8fafc" font-weight="800">ฟรีแลนซ์จดทะเบียนพาณิชย์</text>
  <text x="80" y="158" font-family="system-ui, sans-serif" font-size="42" fill="#f59e0b" font-weight="800">ออนไลน์ต้องทำไหม?</text>
  <text x="80" y="560" font-family="system-ui, sans-serif" font-size="18" fill="#64748b">finlance.co — คู่มือสำหรับฟรีแลนซ์ไทย</text>
</svg>
