<svg width="1200" height="630" viewBox="0 0 1200 630" xmlns="http://www.w3.org/2000/svg">
  <rect width="1200" height="630" fill="#0f172a"/>
  <rect x="0" y="0" width="1200" height="4" fill="#34d399"/>
  <circle cx="1100" cy="100" r="200" fill="#34d399" opacity="0.04"/>
  <polygon points="900,140 700,300 1100,300" fill="#1e293b" stroke="#34d399" stroke-width="2"/>
  <rect x="730" y="300" width="340" height="220" fill="#1e293b" stroke="#334155" stroke-width="1"/>
  <rect x="840" y="380" width="80" height="140" rx="4" fill="#0f172a" stroke="#334155" stroke-width="1"/>
  <rect x="750" y="330" width="60" height="60" rx="4" fill="#0f172a" stroke="#334155" stroke-width="1"/>
  <rect x="950" y="330" width="60" height="60" rx="4" fill="#0f172a" stroke="#334155" stroke-width="1"/>
  <rect x="80" y="160" width="520" height="80" rx="8" fill="#1e293b"/>
  <rect x="80" y="160" width="8" height="80" rx="4" fill="#34d399"/>
  <text x="108" y="195" font-family="system-ui, sans-serif" font-size="18" fill="#34d399" font-weight="600">เตรียม Statement ย้อนหลัง 12 เดือน</text>
  <text x="108" y="225" font-family="system-ui, sans-serif" font-size="15" fill="#64748b">รายรับเฉลี่ยต้องสม่ำเสมอ ไม่ผันผวนมาก</text>
  <rect x="80" y="260" width="520" height="80" rx="8" fill="#1e293b"/>
  <rect x="80" y="260" width="8" height="80" rx="4" fill="#60a5fa"/>
  <text x="108" y="295" font-family="system-ui, sans-serif" font-size="18" fill="#60a5fa" font-weight="600">ภ.ง.ด.90/91 ย้อนหลัง 2 ปี</text>
  <text x="108" y="325" font-family="system-ui, sans-serif" font-size="15" fill="#64748b">เอกสารรายได้จากกรมสรรพากร</text>
  <rect x="80" y="360" width="520" height="80" rx="8" fill="#1e293b"/>
  <rect x="80" y="360" width="8" height="80" rx="4" fill="#f59e0b"/>
  <text x="108" y="395" font-family="system-ui, sans-serif" font-size="18" fill="#f59e0b" font-weight="600">Down Payment อย่างน้อย 10-20%</text>
  <text x="108" y="425" font-family="system-ui, sans-serif" font-size="15" fill="#64748b">เงินดาวน์ยิ่งสูง ยิ่งผ่านง่าย</text>
  <rect x="80" y="460" width="520" height="80" rx="8" fill="#1e293b"/>
  <rect x="80" y="460" width="8" height="80" rx="4" fill="#a78bfa"/>
  <text x="108" y="495" font-family="system-ui, sans-serif" font-size="18" fill="#a78bfa" font-weight="600">เครดิตบูโรสะอาด ไม่มีหนี้ค้าง</text>
  <text x="108" y="525" font-family="system-ui, sans-serif" font-size="15" fill="#64748b">DSR ไม่เกิน 40-50% ของรายได้</text>
  <text x="80" y="100" font-family="system-ui, sans-serif" font-size="40" fill="#f8fafc" font-weight="800">ฟรีแลนซ์ซื้อบ้าน กู้ธนาคาร</text>
  <text x="80" y="145" font-family="system-ui, sans-serif" font-size="40" fill="#34d399" font-weight="800">ยังไงให้ผ่าน</text>
  <text x="80" y="580" font-family="system-ui, sans-serif" font-size="18" fill="#64748b">finlance.co — คู่มือสำหรับฟรีแลนซ์ไทย</text>
</svg>
