<svg xmlns="http://www.w3.org/2000/svg" viewBox="0 0 1200 630">
  <defs>
    <linearGradient id="bg" x1="0" y1="0" x2="1" y2="1"><stop offset="0%" stop-color="#f59e0b"/><stop offset="100%" stop-color="#d97706"/></linearGradient>
  </defs>
  <rect width="1200" height="630" fill="url(#bg)"/>
  <rect x="60" y="80" width="500" height="470" rx="24" fill="white" opacity="0.1"/>
  <text x="310" y="140" text-anchor="middle" font-family="system-ui,sans-serif" font-size="18" font-weight="bold" fill="white">Bucket System</text>
  <rect x="100" y="165" width="420" height="70" rx="12" fill="white" opacity="0.2"/>
  <text x="130" y="195" font-family="system-ui,sans-serif" font-size="24" fill="white">🏠</text>
  <text x="165" y="200" font-family="system-ui,sans-serif" font-size="15" font-weight="bold" fill="white">ค่าใช้จ่ายจำเป็น</text>
  <rect x="350" y="180" width="150" height="24" rx="12" fill="white" opacity="0.3"/>
  <rect x="350" y="180" width="75" height="24" rx="12" fill="white" opacity="0.5"/>
  <text x="490" y="197" font-family="system-ui,sans-serif" font-size="13" fill="white">50%</text>
  <rect x="100" y="250" width="420" height="70" rx="12" fill="white" opacity="0.2"/>
  <text x="130" y="280" font-family="system-ui,sans-serif" font-size="24" fill="white">💰</text>
  <text x="165" y="285" font-family="system-ui,sans-serif" font-size="15" font-weight="bold" fill="white">ออมเงิน + ภาษี</text>
  <rect x="350" y="265" width="150" height="24" rx="12" fill="white" opacity="0.3"/>
  <rect x="350" y="265" width="45" height="24" rx="12" fill="white" opacity="0.5"/>
  <text x="490" y="282" font-family="system-ui,sans-serif" font-size="13" fill="white">30%</text>
  <rect x="100" y="335" width="420" height="70" rx="12" fill="white" opacity="0.2"/>
  <text x="130" y="365" font-family="system-ui,sans-serif" font-size="24" fill="white">🎉</text>
  <text x="165" y="370" font-family="system-ui,sans-serif" font-size="15" font-weight="bold" fill="white">ใช้สนุก + พัฒนาตัวเอง</text>
  <rect x="350" y="350" width="150" height="24" rx="12" fill="white" opacity="0.3"/>
  <rect x="350" y="350" width="30" height="24" rx="12" fill="white" opacity="0.5"/>
  <text x="490" y="367" font-family="system-ui,sans-serif" font-size="13" fill="white">20%</text>
  <rect x="640" y="80" width="480" height="470" rx="24" fill="white" opacity="0.08"/>
  <text x="880" y="180" text-anchor="middle" font-family="system-ui,sans-serif" font-size="32" font-weight="bold" fill="white">บริหาร</text>
  <text x="880" y="225" text-anchor="middle" font-family="system-ui,sans-serif" font-size="32" font-weight="bold" fill="white">กระแสเงินสด</text>
  <text x="880" y="290" text-anchor="middle" font-family="system-ui,sans-serif" font-size="18" fill="white" opacity="0.85">รายได้ไม่แน่นอนก็รอดได้</text>
  <rect x="780" y="400" width="200" height="50" rx="25" fill="white" opacity="0.2"/>
  <text x="880" y="432" text-anchor="middle" font-family="system-ui,sans-serif" font-size="16" font-weight="bold" fill="white">Finlance.co</text>
</svg>