<svg xmlns="http://www.w3.org/2000/svg" viewBox="0 0 1200 630">
  <rect width="1200" height="630" rx="16" fill="#0f172a"/>
  <text x="600" y="50" text-anchor="middle" font-family="system-ui,sans-serif" font-size="22" font-weight="bold" fill="#f8fafc">เปรียบเทียบ Co-working Space กรุงเทพ 2569</text>
  <g transform="translate(40,70)">
    <rect width="220" height="500" rx="12" fill="#1e293b" stroke="#f59e0b" stroke-width="2"/>
    <rect width="220" height="45" rx="12" fill="#f59e0b"/><text x="110" y="30" text-anchor="middle" font-family="system-ui,sans-serif" font-size="14" font-weight="bold" fill="#0f172a">JustCo</text>
    <g font-family="system-ui,sans-serif" font-size="11" fill="#cbd5e1">
      <text x="20" y="75">Hot Desk: ฿4,500/เดือน</text>
      <text x="20" y="100">Day Pass: ฿450</text>
      <text x="20" y="125">หลายสาขา กรุงเทพ</text>
      <text x="20" y="155" fill="#34d399">✓ Premium Location</text>
      <text x="20" y="180" fill="#34d399">✓ Meeting Room</text>
      <text x="20" y="205" fill="#34d399">✓ เครือข่าย APAC</text>
      <text x="20" y="235" fill="#ef4444">✗ ราคาสูง</text>
      <text x="20" y="260" fill="#ef4444">✗ สัญญาขั้นต่ำ</text>
    </g>
    <rect x="15" y="410" width="190" height="55" rx="6" fill="#422006"/>
    <text x="110" y="433" text-anchor="middle" font-family="system-ui,sans-serif" font-size="11" font-weight="bold" fill="#fbbf24">เหมาะกับ:</text>
    <text x="110" y="453" text-anchor="middle" font-family="system-ui,sans-serif" font-size="10" fill="#fed7aa">ต้องการ Address จด รง.</text>
  </g>
  <g transform="translate(280,70)">
    <rect width="220" height="500" rx="12" fill="#1e293b" stroke="#60a5fa" stroke-width="2"/>
    <rect width="220" height="45" rx="12" fill="#60a5fa"/><text x="110" y="30" text-anchor="middle" font-family="system-ui,sans-serif" font-size="14" font-weight="bold" fill="#0f172a">HUBBA</text>
    <g font-family="system-ui,sans-serif" font-size="11" fill="#cbd5e1">
      <text x="20" y="75">Hot Desk: ฿3,500/เดือน</text>
      <text x="20" y="100">Day Pass: ฿350</text>
      <text x="20" y="125">เอกมัย/สีลม</text>
      <text x="20" y="155" fill="#34d399">✓ Community แข็ง</text>
      <text x="20" y="180" fill="#34d399">✓ Event/Workshop</text>
      <text x="20" y="205" fill="#34d399">✓ Startup Vibe</text>
      <text x="20" y="235" fill="#ef4444">✗ เสียงดังบางช่วง</text>
      <text x="20" y="260" fill="#ef4444">✗ จำกัดสาขา</text>
    </g>
    <rect x="15" y="410" width="190" height="55" rx="6" fill="#0c4a6e"/>
    <text x="110" y="433" text-anchor="middle" font-family="system-ui,sans-serif" font-size="11" font-weight="bold" fill="#7dd3fc">เหมาะกับ:</text>
    <text x="110" y="453" text-anchor="middle" font-family="system-ui,sans-serif" font-size="10" fill="#bae6fd">Networking/Startup</text>
  </g>
  <g transform="translate(520,70)">
    <rect width="220" height="500" rx="12" fill="#1e293b" stroke="#34d399" stroke-width="2"/>
    <rect width="220" height="45" rx="12" fill="#34d399"/><text x="110" y="30" text-anchor="middle" font-family="system-ui,sans-serif" font-size="14" font-weight="bold" fill="#0f172a">AIS D.C.</text>
    <g font-family="system-ui,sans-serif" font-size="11" fill="#cbd5e1">
      <text x="20" y="75">สมาชิก AIS: <tspan fill="#34d399">ฟรี</tspan></text>
      <text x="20" y="100">ไม่ใช่สมาชิก: ฿199/วัน</text>
      <text x="20" y="125">เอ็มควอเทียร์/สยาม</text>
      <text x="20" y="155" fill="#34d399">✓ ฟรี (ลูกค้า AIS)</text>
      <text x="20" y="180" fill="#34d399">✓ ใจกลางเมือง</text>
      <text x="20" y="205" fill="#34d399">✓ เน็ตเร็ว</text>
      <text x="20" y="235" fill="#ef4444">✗ คนเยอะมาก</text>
      <text x="20" y="260" fill="#ef4444">✗ ไม่มี Meeting Room</text>
    </g>
    <rect x="15" y="410" width="190" height="55" rx="6" fill="#064e3b"/>
    <text x="110" y="433" text-anchor="middle" font-family="system-ui,sans-serif" font-size="11" font-weight="bold" fill="#6ee7b7">เหมาะกับ:</text>
    <text x="110" y="453" text-anchor="middle" font-family="system-ui,sans-serif" font-size="10" fill="#a7f3d0">งบจำกัด/ใช้เป็นครั้งคราว</text>
  </g>
  <g transform="translate(760,70)">
    <rect width="220" height="500" rx="12" fill="#1e293b" stroke="#a78bfa" stroke-width="2"/>
    <rect width="220" height="45" rx="12" fill="#a78bfa"/><text x="110" y="30" text-anchor="middle" font-family="system-ui,sans-serif" font-size="14" font-weight="bold" fill="#0f172a">The Hive</text>
    <g font-family="system-ui,sans-serif" font-size="11" fill="#cbd5e1">
      <text x="20" y="75">Hot Desk: ฿5,900/เดือน</text>
      <text x="20" y="100">Day Pass: ฿550</text>
      <text x="20" y="125">ทองหล่อ/สาทร</text>
      <text x="20" y="155" fill="#34d399">✓ Premium สุด</text>
      <text x="20" y="180" fill="#34d399">✓ Global Network</text>
      <text x="20" y="205" fill="#34d399">✓ Private Office</text>
      <text x="20" y="235" fill="#ef4444">✗ แพงที่สุด</text>
      <text x="20" y="260" fill="#ef4444">✗ สัญญา 3+ เดือน</text>
    </g>
    <rect x="15" y="410" width="190" height="55" rx="6" fill="#2e1065"/>
    <text x="110" y="433" text-anchor="middle" font-family="system-ui,sans-serif" font-size="11" font-weight="bold" fill="#c4b5fd">เหมาะกับ:</text>
    <text x="110" y="453" text-anchor="middle" font-family="system-ui,sans-serif" font-size="10" fill="#ddd6fe">ฟรีแลนซ์รายได้สูง</text>
  </g>
  <text x="600" y="610" text-anchor="middle" font-family="system-ui,sans-serif" font-size="14" fill="#64748b">finlance.co</text>
</svg>