<svg xmlns="http://www.w3.org/2000/svg" viewBox="0 0 1200 630">
  <defs>
    <linearGradient id="bg" x1="0" y1="0" x2="1" y2="1"><stop offset="0%" stop-color="#6366f1"/><stop offset="100%" stop-color="#4338ca"/></linearGradient>
  </defs>
  <rect width="1200" height="630" fill="url(#bg)"/>
  <rect x="60" y="80" width="460" height="470" rx="24" fill="white" opacity="0.1"/>
  <text x="290" y="135" text-anchor="middle" font-family="system-ui,sans-serif" font-size="18" font-weight="bold" fill="white">Co-working Space</text>
  <text x="290" y="175" text-anchor="middle" font-family="system-ui,sans-serif" font-size="13" fill="white" opacity="0.8">3,000-8,000 บาท/เดือน</text>
  <rect x="100" y="200" width="380" height="35" rx="6" fill="white" opacity="0.12"/>
  <text x="140" y="223" font-family="system-ui,sans-serif" font-size="11" fill="white">+ อินเทอร์เน็ตเร็ว</text>
  <rect x="100" y="240" width="380" height="35" rx="6" fill="white" opacity="0.12"/>
  <text x="140" y="263" font-family="system-ui,sans-serif" font-size="11" fill="white">+ สังคม networking</text>
  <rect x="100" y="280" width="380" height="35" rx="6" fill="white" opacity="0.12"/>
  <text x="140" y="303" font-family="system-ui,sans-serif" font-size="11" fill="white">+ ห้องประชุมลูกค้า</text>
  <text x="600" y="320" text-anchor="middle" font-family="system-ui,sans-serif" font-size="32" font-weight="bold" fill="white" opacity="0.3">VS</text>
  <rect x="680" y="80" width="460" height="470" rx="24" fill="white" opacity="0.1"/>
  <text x="910" y="135" text-anchor="middle" font-family="system-ui,sans-serif" font-size="18" font-weight="bold" fill="#fbbf24">Work from Home</text>
  <text x="910" y="175" text-anchor="middle" font-family="system-ui,sans-serif" font-size="13" fill="white" opacity="0.8">0-1,500 บาท/เดือน</text>
  <rect x="720" y="200" width="380" height="35" rx="6" fill="white" opacity="0.12"/>
  <text x="760" y="223" font-family="system-ui,sans-serif" font-size="11" fill="white">+ ประหยัดค่าเดินทาง</text>
  <rect x="720" y="240" width="380" height="35" rx="6" fill="white" opacity="0.12"/>
  <text x="760" y="263" font-family="system-ui,sans-serif" font-size="11" fill="white">+ ยืดหยุ่นเวลา 100%</text>
  <rect x="720" y="280" width="380" height="35" rx="6" fill="white" opacity="0.12"/>
  <text x="760" y="303" font-family="system-ui,sans-serif" font-size="11" fill="white">+ ไม่มีค่าเช่า</text>
  <text x="600" y="590" text-anchor="middle" font-family="system-ui,sans-serif" font-size="24" font-weight="bold" fill="white">เปรียบเทียบต้นทุนและประสิทธิภาพ</text>
</svg>