<svg xmlns="http://www.w3.org/2000/svg" viewBox="0 0 1200 630">
  <defs>
    <linearGradient id="bg" x1="0" y1="0" x2="1" y2="1"><stop offset="0%" stop-color="#ec4899"/><stop offset="100%" stop-color="#be185d"/></linearGradient>
  </defs>
  <rect width="1200" height="630" fill="url(#bg)"/>
  <rect x="60" y="80" width="500" height="470" rx="24" fill="white" opacity="0.1"/>
  <text x="310" y="150" text-anchor="middle" font-family="system-ui,sans-serif" font-size="20" font-weight="bold" fill="white">เอกสารกู้เงินที่ต้องเตรียม</text>
  <rect x="100" y="180" width="400" height="45" rx="10" fill="white" opacity="0.15"/>
  <text x="120" y="210" font-family="system-ui,sans-serif" font-size="14" fill="white">✓ Statement บัญชี 6-12 เดือน</text>
  <rect x="100" y="240" width="400" height="45" rx="10" fill="white" opacity="0.15"/>
  <text x="120" y="270" font-family="system-ui,sans-serif" font-size="14" fill="white">✓ หลักฐานรายได้ (Invoice/สัญญา)</text>
  <rect x="100" y="300" width="400" height="45" rx="10" fill="white" opacity="0.15"/>
  <text x="120" y="330" font-family="system-ui,sans-serif" font-size="14" fill="white">✓ ทะเบียนการค้า/จดทะเบียนธุรกิจ</text>
  <rect x="100" y="360" width="400" height="45" rx="10" fill="white" opacity="0.15"/>
  <text x="120" y="390" font-family="system-ui,sans-serif" font-size="14" fill="white">✓ สำเนาบัตรประชาชน + ทะเบียนบ้าน</text>
  <rect x="100" y="420" width="400" height="45" rx="10" fill="white" opacity="0.15"/>
  <text x="120" y="450" font-family="system-ui,sans-serif" font-size="14" fill="white">✓ ภาษีที่ยื่นแล้ว (ภ.ง.ด.90)</text>
  <rect x="640" y="80" width="480" height="470" rx="24" fill="white" opacity="0.08"/>
  <text x="880" y="180" text-anchor="middle" font-family="system-ui,sans-serif" font-size="32" font-weight="bold" fill="white">จัดการหนี้</text>
  <text x="880" y="225" text-anchor="middle" font-family="system-ui,sans-serif" font-size="32" font-weight="bold" fill="white">+ กู้เงินให้ผ่าน</text>
  <text x="880" y="295" text-anchor="middle" font-family="system-ui,sans-serif" font-size="18" fill="white" opacity="0.85">เคล็ดลับสำหรับฟรีแลนซ์</text>
  <rect x="780" y="400" width="200" height="50" rx="25" fill="white" opacity="0.2"/>
  <text x="880" y="432" text-anchor="middle" font-family="system-ui,sans-serif" font-size="16" font-weight="bold" fill="white">Finlance.co</text>
</svg>