<svg xmlns="http://www.w3.org/2000/svg" viewBox="0 0 1200 630">
  <rect width="1200" height="630" rx="16" fill="#0f172a"/>
  <rect x="60" y="60" width="520" height="510" rx="12" fill="#1e293b" stroke="#334155" stroke-width="1"/>
  <text x="320" y="110" text-anchor="middle" font-family="system-ui,sans-serif" font-size="20" font-weight="bold" fill="#60a5fa">Case Study: Developer ฟรีแลนซ์</text>
  <text x="320" y="145" text-anchor="middle" font-family="system-ui,sans-serif" font-size="14" fill="#94a3b8">เส้นทางการเงินจาก 30K → 150K/เดือน</text>
  <g font-family="system-ui,sans-serif">
    <rect x="90" y="175" width="430" height="55" rx="8" fill="#0f172a"/>
    <text x="110" y="200" font-size="11" fill="#94a3b8">ปีที่ 1</text>
    <rect x="180" y="190" width="80" height="20" rx="4" fill="#60a5fa"/>
    <text x="280" y="205" font-size="11" fill="#cbd5e1">30,000 บาท/เดือน</text>
    <rect x="90" y="240" width="430" height="55" rx="8" fill="#0f172a"/>
    <text x="110" y="265" font-size="11" fill="#94a3b8">ปีที่ 2</text>
    <rect x="180" y="255" width="160" height="20" rx="4" fill="#34d399"/>
    <text x="360" y="270" font-size="11" fill="#cbd5e1">60,000 บาท/เดือน</text>
    <rect x="90" y="305" width="430" height="55" rx="8" fill="#0f172a"/>
    <text x="110" y="330" font-size="11" fill="#94a3b8">ปีที่ 3</text>
    <rect x="180" y="320" width="280" height="20" rx="4" fill="#f59e0b"/>
    <text x="480" y="335" font-size="11" fill="#cbd5e1">100,000 บาท/เดือน</text>
    <rect x="90" y="370" width="430" height="55" rx="8" fill="#0f172a"/>
    <text x="110" y="395" font-size="11" fill="#94a3b8">ปีที่ 5</text>
    <rect x="180" y="385" width="330" height="20" rx="4" fill="#a78bfa"/>
    <text x="530" y="400" font-size="11" fill="#cbd5e1">150,000 บาท/เดือน</text>
  </g>
  <rect x="90" y="445" width="430" height="90" rx="8" fill="#064e3b"/>
  <text x="305" y="480" text-anchor="middle" font-family="system-ui,sans-serif" font-size="13" font-weight="bold" fill="#34d399">กุญแจสำคัญ</text>
  <text x="305" y="510" text-anchor="middle" font-family="system-ui,sans-serif" font-size="11" fill="#a7f3d0">Specialize + Retainer + Foreign Clients</text>
  <g transform="translate(640, 60)">
    <rect width="500" height="510" rx="12" fill="#1e293b" stroke="#334155" stroke-width="1"/>
    <text x="250" y="50" text-anchor="middle" font-family="system-ui,sans-serif" font-size="16" font-weight="bold" fill="#f8fafc">แผนการเงิน Developer</text>
    <g font-family="system-ui,sans-serif" font-size="12" fill="#cbd5e1">
      <rect x="30" y="75" width="440" height="60" rx="8" fill="#0f172a"/>
      <text x="50" y="100" fill="#60a5fa" font-weight="bold">รายได้</text>
      <text x="50" y="120">Retainer 3 ราย + โปรเจกต์ + ลูกค้าต่างชาติ</text>
      <rect x="30" y="150" width="440" height="60" rx="8" fill="#0f172a"/>
      <text x="50" y="175" fill="#34d399" font-weight="bold">ค่าใช้จ่าย</text>
      <text x="50" y="195">Server/Tools 5K + CoWorking 3K + Insurance 2K</text>
      <rect x="30" y="225" width="440" height="60" rx="8" fill="#0f172a"/>
      <text x="50" y="250" fill="#f59e0b" font-weight="bold">ภาษี</text>
      <text x="50" y="270">กัน 8%/เดือน + SSF 200K + RMF 200K/ปี</text>
      <rect x="30" y="300" width="440" height="60" rx="8" fill="#0f172a"/>
      <text x="50" y="325" fill="#a78bfa" font-weight="bold">การออม</text>
      <text x="50" y="345">Emergency 6 เดือน + ลงทุน 30% ของรายได้</text>
    </g>
    <rect x="30" y="385" width="440" height="100" rx="8" fill="#422006"/>
    <text x="250" y="420" text-anchor="middle" font-family="system-ui,sans-serif" font-size="14" font-weight="bold" fill="#fbbf24">Tech Stack ที่ทำเงิน 2026</text>
    <text x="250" y="450" text-anchor="middle" font-family="system-ui,sans-serif" font-size="11" fill="#fed7aa">React/Next.js • AI/ML Integration • Mobile App</text>
    <text x="250" y="470" text-anchor="middle" font-family="system-ui,sans-serif" font-size="11" fill="#fed7aa">Cloud/DevOps • Blockchain/Web3</text>
  </g>
  <text x="600" y="610" text-anchor="middle" font-family="system-ui,sans-serif" font-size="14" fill="#64748b">finlance.co</text>
</svg>