<svg width="1200" height="630" viewBox="0 0 1200 630" xmlns="http://www.w3.org/2000/svg">
  <rect width="1200" height="630" fill="#0f172a"/>
  <rect x="0" y="0" width="1200" height="4" fill="#60a5fa"/>
  <circle cx="1150" cy="80" r="220" fill="#60a5fa" opacity="0.04"/>
  <circle cx="50" cy="580" r="200" fill="#34d399" opacity="0.04"/>
  <rect x="640" y="120" width="500" height="400" rx="12" fill="#1e293b" stroke="#334155" stroke-width="1"/>
  <rect x="640" y="120" width="500" height="60" rx="12" fill="#1d4ed8"/>
  <rect x="640" y="168" width="500" height="12" rx="0" fill="#1d4ed8"/>
  <text x="890" y="158" font-family="system-ui, sans-serif" font-size="20" fill="#fff" font-weight="700" text-anchor="middle">e-Tax Invoice</text>
  <text x="660" y="220" font-family="system-ui, sans-serif" font-size="14" fill="#64748b">เลขที่:</text>
  <text x="760" y="220" font-family="system-ui, sans-serif" font-size="14" fill="#94a3b8">INV-2026-001</text>
  <text x="660" y="250" font-family="system-ui, sans-serif" font-size="14" fill="#64748b">วันที่:</text>
  <text x="760" y="250" font-family="system-ui, sans-serif" font-size="14" fill="#94a3b8">11/06/2569</text>
  <line x1="660" y1="270" x2="1120" y2="270" stroke="#334155" stroke-width="1"/>
  <text x="660" y="300" font-family="system-ui, sans-serif" font-size="13" fill="#64748b">รายการ</text>
  <text x="950" y="300" font-family="system-ui, sans-serif" font-size="13" fill="#64748b">จำนวนเงิน</text>
  <text x="660" y="330" font-family="system-ui, sans-serif" font-size="14" fill="#e2e8f0">ค่าออกแบบเว็บไซต์</text>
  <text x="950" y="330" font-family="system-ui, sans-serif" font-size="14" fill="#e2e8f0">50,000</text>
  <text x="660" y="360" font-family="system-ui, sans-serif" font-size="14" fill="#94a3b8">ภาษีมูลค่าเพิ่ม 7%</text>
  <text x="950" y="360" font-family="system-ui, sans-serif" font-size="14" fill="#94a3b8">3,500</text>
  <line x1="660" y1="375" x2="1120" y2="375" stroke="#334155" stroke-width="1"/>
  <text x="660" y="405" font-family="system-ui, sans-serif" font-size="16" fill="#60a5fa" font-weight="700">รวมทั้งสิ้น</text>
  <text x="950" y="405" font-family="system-ui, sans-serif" font-size="16" fill="#60a5fa" font-weight="700">53,500</text>
  <rect x="660" y="430" width="100" height="100" rx="8" fill="#0f172a" stroke="#334155" stroke-width="1"/>
  <text x="710" y="490" font-family="system-ui, sans-serif" font-size="11" fill="#64748b" text-anchor="middle">QR Code</text>
  <text x="790" y="455" font-family="system-ui, sans-serif" font-size="13" fill="#34d399">✓ ลงนามดิจิทัลแล้ว</text>
  <text x="790" y="480" font-family="system-ui, sans-serif" font-size="13" fill="#34d399">✓ ยืนยันโดยสรรพากร</text>
  <text x="80" y="120" font-family="system-ui, sans-serif" font-size="40" fill="#f8fafc" font-weight="800">วิธีออก e-Tax Invoice</text>
  <text x="80" y="165" font-family="system-ui, sans-serif" font-size="40" fill="#60a5fa" font-weight="800">สำหรับฟรีแลนซ์ 2569</text>
  <text x="80" y="240" font-family="system-ui, sans-serif" font-size="20" fill="#94a3b8">ระบบใหม่กรมสรรพากร</text>
  <text x="80" y="290" font-family="system-ui, sans-serif" font-size="20" fill="#94a3b8">ใช้ง่าย ปลอดภัย ยืนยันตัวตนออนไลน์</text>
  <rect x="80" y="340" width="200" height="50" rx="25" fill="#60a5fa"/>
  <text x="180" y="372" font-family="system-ui, sans-serif" font-size="18" fill="#0f172a" font-weight="700" text-anchor="middle">คู่มือ 2569</text>
  <text x="80" y="560" font-family="system-ui, sans-serif" font-size="18" fill="#64748b">finlance.co — คู่มือสำหรับฟรีแลนซ์ไทย</text>
</svg>
