<svg width="1200" height="630" viewBox="0 0 1200 630" xmlns="http://www.w3.org/2000/svg">
  <rect width="1200" height="630" fill="#0f172a"/>
  <rect x="0" y="0" width="1200" height="4" fill="#a78bfa"/>
  <circle cx="600" cy="315" r="400" fill="#a78bfa" opacity="0.03"/>
  <rect x="100" y="80" width="200" height="55" rx="8" fill="#1e293b" stroke="#a78bfa" stroke-width="1.5"/>
  <text x="120" y="114" font-family="system-ui, sans-serif" font-size="14" fill="#a78bfa">💰 บริหารการเงิน</text>
  <rect x="320" y="80" width="200" height="55" rx="8" fill="#1e293b" stroke="#60a5fa" stroke-width="1.5"/>
  <text x="340" y="114" font-family="system-ui, sans-serif" font-size="14" fill="#60a5fa">📊 ตั้งราคา &amp; เจรจา</text>
  <rect x="540" y="80" width="200" height="55" rx="8" fill="#1e293b" stroke="#34d399" stroke-width="1.5"/>
  <text x="560" y="114" font-family="system-ui, sans-serif" font-size="14" fill="#34d399">🗣 สื่อสาร &amp; นำเสนอ</text>
  <rect x="760" y="80" width="200" height="55" rx="8" fill="#1e293b" stroke="#f59e0b" stroke-width="1.5"/>
  <text x="780" y="114" font-family="system-ui, sans-serif" font-size="14" fill="#f59e0b">⏰ จัดการเวลา</text>
  <rect x="100" y="155" width="200" height="55" rx="8" fill="#1e293b" stroke="#ef4444" stroke-width="1.5"/>
  <text x="120" y="189" font-family="system-ui, sans-serif" font-size="14" fill="#ef4444">📝 ภาษี &amp; บัญชี</text>
  <rect x="320" y="155" width="200" height="55" rx="8" fill="#1e293b" stroke="#a78bfa" stroke-width="1.5"/>
  <text x="340" y="189" font-family="system-ui, sans-serif" font-size="14" fill="#a78bfa">🤝 หาลูกค้า</text>
  <rect x="540" y="155" width="200" height="55" rx="8" fill="#1e293b" stroke="#60a5fa" stroke-width="1.5"/>
  <text x="560" y="189" font-family="system-ui, sans-serif" font-size="14" fill="#60a5fa">📋 สัญญา &amp; กฎหมาย</text>
  <rect x="760" y="155" width="200" height="55" rx="8" fill="#1e293b" stroke="#34d399" stroke-width="1.5"/>
  <text x="780" y="189" font-family="system-ui, sans-serif" font-size="14" fill="#34d399">🧠 Growth Mindset</text>
  <text x="80" y="400" font-family="system-ui, sans-serif" font-size="42" fill="#f8fafc" font-weight="800">ทักษะที่ฟรีแลนซ์ต้องมี</text>
  <text x="80" y="450" font-family="system-ui, sans-serif" font-size="42" fill="#a78bfa" font-weight="800">นอกจากทักษะหลัก</text>
  <text x="80" y="560" font-family="system-ui, sans-serif" font-size="18" fill="#64748b">finlance.co — คู่มือสำหรับฟรีแลนซ์ไทย</text>
</svg>