<svg width="1200" height="630" viewBox="0 0 1200 630" xmlns="http://www.w3.org/2000/svg">
  <rect width="1200" height="630" fill="#0f172a"/>
  <rect x="0" y="0" width="1200" height="4" fill="#f59e0b"/>
  <circle cx="600" cy="315" r="400" fill="#f59e0b" opacity="0.03"/>
  <rect x="100" y="100" width="900" height="40" rx="20" fill="#1e293b" stroke="#334155" stroke-width="1"/>
  <rect x="100" y="100" width="540" height="40" rx="20" fill="#34d399" opacity="0.3"/>
  <text x="370" y="126" font-family="system-ui, sans-serif" font-size="14" fill="#34d399" text-anchor="middle" font-weight="600">เงินสำรอง 6 เดือน ✓</text>
  <rect x="640" y="100" width="180" height="40" rx="0" fill="#f59e0b" opacity="0.2"/>
  <text x="730" y="126" font-family="system-ui, sans-serif" font-size="14" fill="#f59e0b" text-anchor="middle">Buffer Zone</text>
  <rect x="820" y="100" width="180" height="40" rx="20" fill="#ef4444" opacity="0.2"/>
  <text x="910" y="126" font-family="system-ui, sans-serif" font-size="14" fill="#ef4444" text-anchor="middle">⚠ อันตราย</text>
  <text x="100" y="90" font-family="system-ui, sans-serif" font-size="12" fill="#64748b">เดือน 1</text>
  <text x="400" y="90" font-family="system-ui, sans-serif" font-size="12" fill="#64748b">เดือน 3</text>
  <text x="640" y="90" font-family="system-ui, sans-serif" font-size="12" fill="#64748b">เดือน 6</text>
  <text x="1000" y="90" font-family="system-ui, sans-serif" font-size="12" fill="#64748b">เดือน 12</text>
  <rect x="100" y="170" width="280" height="90" rx="8" fill="#1e293b"/>
  <text x="120" y="200" font-family="system-ui, sans-serif" font-size="16" fill="#34d399" font-weight="600">ค่าใช้จ่ายประจำ/เดือน</text>
  <text x="120" y="235" font-family="system-ui, sans-serif" font-size="28" fill="#f8fafc" font-weight="700">฿25,000</text>
  <rect x="410" y="170" width="280" height="90" rx="8" fill="#1e293b"/>
  <text x="430" y="200" font-family="system-ui, sans-serif" font-size="16" fill="#f59e0b" font-weight="600">Runway ที่ต้องมี</text>
  <text x="430" y="235" font-family="system-ui, sans-serif" font-size="28" fill="#f8fafc" font-weight="700">฿150,000</text>
  <rect x="720" y="170" width="280" height="90" rx="8" fill="#1e293b"/>
  <text x="740" y="200" font-family="system-ui, sans-serif" font-size="16" fill="#a78bfa" font-weight="600">แนะนำ (9-12 เดือน)</text>
  <text x="740" y="235" font-family="system-ui, sans-serif" font-size="28" fill="#f8fafc" font-weight="700">฿225,000+</text>
  <text x="80" y="400" font-family="system-ui, sans-serif" font-size="42" fill="#f8fafc" font-weight="800">เตรียมเงินเท่าไหร่</text>
  <text x="80" y="450" font-family="system-ui, sans-serif" font-size="42" fill="#f59e0b" font-weight="800">ก่อนลาออกมาฟรีแลนซ์</text>
  <text x="80" y="560" font-family="system-ui, sans-serif" font-size="18" fill="#64748b">finlance.co — คู่มือสำหรับฟรีแลนซ์ไทย</text>
</svg>