<svg xmlns="http://www.w3.org/2000/svg" viewBox="0 0 1200 630">
  <defs>
    <linearGradient id="bg" x1="0%" y1="0%" x2="100%" y2="100%">
      <stop offset="0%" style="stop-color:#8b5cf6"/>
      <stop offset="100%" style="stop-color:#7c3aed"/>
    </linearGradient>
  </defs>
  <rect width="1200" height="630" fill="url(#bg)"/>
  <circle cx="600" cy="250" r="120" fill="white" opacity="0.08"/>
  <circle cx="600" cy="250" r="80" fill="white" opacity="0.1"/>
  <text x="600" y="260" text-anchor="middle" font-family="system-ui,sans-serif" font-size="48" fill="white">YOU</text>
  <line x1="520" y1="200" x2="350" y2="120" stroke="white" stroke-width="2" opacity="0.3"/>
  <line x1="680" y1="200" x2="850" y2="120" stroke="white" stroke-width="2" opacity="0.3"/>
  <line x1="520" y1="300" x2="300" y2="380" stroke="white" stroke-width="2" opacity="0.3"/>
  <line x1="680" y1="300" x2="900" y2="380" stroke="white" stroke-width="2" opacity="0.3"/>
  <line x1="600" y1="370" x2="600" y2="440" stroke="white" stroke-width="2" opacity="0.3"/>
  <circle cx="350" cy="110" r="40" fill="#10b981" opacity="0.3"/><text x="350" y="117" text-anchor="middle" font-family="system-ui,sans-serif" font-size="14" fill="white">LinkedIn</text>
  <circle cx="850" cy="110" r="40" fill="#0ea5e9" opacity="0.3"/><text x="850" y="117" text-anchor="middle" font-family="system-ui,sans-serif" font-size="14" fill="white">Platform</text>
  <circle cx="300" cy="390" r="40" fill="#f59e0b" opacity="0.3"/><text x="300" y="397" text-anchor="middle" font-family="system-ui,sans-serif" font-size="14" fill="white">Referral</text>
  <circle cx="900" cy="390" r="40" fill="#ec4899" opacity="0.3"/><text x="900" y="397" text-anchor="middle" font-family="system-ui,sans-serif" font-size="14" fill="white">Content</text>
  <circle cx="600" cy="450" r="40" fill="#ef4444" opacity="0.3"/><text x="600" y="457" text-anchor="middle" font-family="system-ui,sans-serif" font-size="14" fill="white">Network</text>
  <text x="600" y="555" text-anchor="middle" font-family="system-ui,sans-serif" font-size="28" font-weight="bold" fill="white">หาลูกค้าฟรีแลนซ์ 10 ช่องทาง</text>
  <text x="600" y="590" text-anchor="middle" font-family="system-ui,sans-serif" font-size="16" fill="white" opacity="0.7">Finlance.co</text>
</svg>