<svg xmlns="http://www.w3.org/2000/svg" viewBox="0 0 1200 630">
  <rect width="1200" height="630" rx="16" fill="#0f172a"/>
  <text x="600" y="50" text-anchor="middle" font-family="system-ui,sans-serif" font-size="22" font-weight="bold" fill="#f8fafc">เปรียบเทียบแพลตฟอร์มหางานฟรีแลนซ์ 2569</text>
  <g transform="translate(40,75)">
    <rect width="220" height="490" rx="12" fill="#1e293b" stroke="#34d399" stroke-width="2"/>
    <rect width="220" height="45" rx="12" fill="#34d399"/><text x="110" y="30" text-anchor="middle" font-family="system-ui,sans-serif" font-size="15" font-weight="bold" fill="#0f172a">Upwork</text>
    <g font-family="system-ui,sans-serif" font-size="12" fill="#cbd5e1">
      <text x="20" y="75">ค่าคอม: 10%</text>
      <text x="20" y="100">ลูกค้าทั่วโลก</text>
      <text x="20" y="125">Payment Protection</text>
      <text x="20" y="155" fill="#34d399">✓ งานเยอะที่สุด</text>
      <text x="20" y="180" fill="#34d399">✓ Escrow ปลอดภัย</text>
      <text x="20" y="210" fill="#ef4444">✗ แข่งขันสูงมาก</text>
      <text x="20" y="235" fill="#ef4444">✗ ค่าคอมแพง</text>
    </g>
    <rect x="15" y="400" width="190" height="55" rx="6" fill="#064e3b"/>
    <text x="110" y="425" text-anchor="middle" font-family="system-ui,sans-serif" font-size="11" font-weight="bold" fill="#6ee7b7">เหมาะกับ: Dev/Design</text>
    <text x="110" y="445" text-anchor="middle" font-family="system-ui,sans-serif" font-size="10" fill="#a7f3d0">ลูกค้าต่างชาติ</text>
  </g>
  <g transform="translate(280,75)">
    <rect width="220" height="490" rx="12" fill="#1e293b" stroke="#60a5fa" stroke-width="2"/>
    <rect width="220" height="45" rx="12" fill="#60a5fa"/><text x="110" y="30" text-anchor="middle" font-family="system-ui,sans-serif" font-size="15" font-weight="bold" fill="#0f172a">Fiverr</text>
    <g font-family="system-ui,sans-serif" font-size="12" fill="#cbd5e1">
      <text x="20" y="75">ค่าคอม: 20%</text>
      <text x="20" y="100">ระบบ Gig-based</text>
      <text x="20" y="125">ตั้งราคาเป็นแพ็กเกจ</text>
      <text x="20" y="155" fill="#34d399">✓ ไม่ต้อง bid</text>
      <text x="20" y="180" fill="#34d399">✓ Passive income</text>
      <text x="20" y="210" fill="#ef4444">✗ ค่าคอม 20%</text>
      <text x="20" y="235" fill="#ef4444">✗ Race to bottom</text>
    </g>
    <rect x="15" y="400" width="190" height="55" rx="6" fill="#0c4a6e"/>
    <text x="110" y="425" text-anchor="middle" font-family="system-ui,sans-serif" font-size="11" font-weight="bold" fill="#7dd3fc">เหมาะกับ: Creative</text>
    <text x="110" y="445" text-anchor="middle" font-family="system-ui,sans-serif" font-size="10" fill="#bae6fd">งาน Productized</text>
  </g>
  <g transform="translate(520,75)">
    <rect width="220" height="490" rx="12" fill="#1e293b" stroke="#f59e0b" stroke-width="2"/>
    <rect width="220" height="45" rx="12" fill="#f59e0b"/><text x="110" y="30" text-anchor="middle" font-family="system-ui,sans-serif" font-size="15" font-weight="bold" fill="#0f172a">Fastwork</text>
    <g font-family="system-ui,sans-serif" font-size="12" fill="#cbd5e1">
      <text x="20" y="75">ค่าคอม: 10-15%</text>
      <text x="20" y="100">แพลตฟอร์มไทย</text>
      <text x="20" y="125">จ่ายเป็นบาทไทย</text>
      <text x="20" y="155" fill="#34d399">✓ ลูกค้าไทย</text>
      <text x="20" y="180" fill="#34d399">✓ ไม่ต้องแปลภาษา</text>
      <text x="20" y="210" fill="#ef4444">✗ งานน้อยกว่า</text>
      <text x="20" y="235" fill="#ef4444">✗ ราคาต่ำกว่า</text>
    </g>
    <rect x="15" y="400" width="190" height="55" rx="6" fill="#422006"/>
    <text x="110" y="425" text-anchor="middle" font-family="system-ui,sans-serif" font-size="11" font-weight="bold" fill="#fbbf24">เหมาะกับ: ทุกสาย</text>
    <text x="110" y="445" text-anchor="middle" font-family="system-ui,sans-serif" font-size="10" fill="#fed7aa">ลูกค้าไทย</text>
  </g>
  <g transform="translate(760,75)">
    <rect width="220" height="490" rx="12" fill="#1e293b" stroke="#a78bfa" stroke-width="2"/>
    <rect width="220" height="45" rx="12" fill="#a78bfa"/><text x="110" y="30" text-anchor="middle" font-family="system-ui,sans-serif" font-size="15" font-weight="bold" fill="#0f172a">Toptal</text>
    <g font-family="system-ui,sans-serif" font-size="12" fill="#cbd5e1">
      <text x="20" y="75">ค่าคอม: 0% (ฟรี)</text>
      <text x="20" y="100">Top 3% เท่านั้น</text>
      <text x="20" y="125">Rate สูงกว่าตลาด</text>
      <text x="20" y="155" fill="#34d399">✓ ไม่หักค่าคอม</text>
      <text x="20" y="180" fill="#34d399">✓ ค่าตอบแทนสูง</text>
      <text x="20" y="210" fill="#ef4444">✗ สมัครยากมาก</text>
      <text x="20" y="235" fill="#ef4444">✗ ต้องสอบผ่าน</text>
    </g>
    <rect x="15" y="400" width="190" height="55" rx="6" fill="#2e1065"/>
    <text x="110" y="425" text-anchor="middle" font-family="system-ui,sans-serif" font-size="11" font-weight="bold" fill="#c4b5fd">เหมาะกับ: Senior</text>
    <text x="110" y="445" text-anchor="middle" font-family="system-ui,sans-serif" font-size="10" fill="#ddd6fe">Dev/Design ระดับสูง</text>
  </g>
  <text x="600" y="610" text-anchor="middle" font-family="system-ui,sans-serif" font-size="14" fill="#64748b">finlance.co</text>
</svg>