<svg xmlns="http://www.w3.org/2000/svg" viewBox="0 0 1200 630">
  <defs>
    <linearGradient id="bg" x1="0" y1="0" x2="1" y2="1"><stop offset="0%" stop-color="#8b5cf6"/><stop offset="100%" stop-color="#5b21b6"/></linearGradient>
  </defs>
  <rect width="1200" height="630" fill="url(#bg)"/>
  <rect x="60" y="80" width="500" height="470" rx="24" fill="white" opacity="0.1"/>
  <text x="310" y="140" text-anchor="middle" font-family="system-ui,sans-serif" font-size="16" font-weight="bold" fill="white">ค่าใช้จ่ายที่หักได้</text>
  <rect x="100" y="165" width="420" height="40" rx="8" fill="white" opacity="0.15"/>
  <text x="140" y="191" font-family="system-ui,sans-serif" font-size="12" fill="white">ค่าอินเทอร์เน็ต (ส่วนที่ใช้งาน)</text>
  <rect x="100" y="215" width="420" height="40" rx="8" fill="white" opacity="0.15"/>
  <text x="140" y="241" font-family="system-ui,sans-serif" font-size="12" fill="white">ค่าไฟฟ้า (สัดส่วนห้องทำงาน)</text>
  <rect x="100" y="265" width="420" height="40" rx="8" fill="white" opacity="0.15"/>
  <text x="140" y="291" font-family="system-ui,sans-serif" font-size="12" fill="white">ค่าคอมพิวเตอร์ อุปกรณ์ทำงาน</text>
  <rect x="100" y="315" width="420" height="40" rx="8" fill="white" opacity="0.15"/>
  <text x="140" y="341" font-family="system-ui,sans-serif" font-size="12" fill="white">ค่าซอฟต์แวร์ ค่า subscription</text>
  <rect x="100" y="365" width="420" height="40" rx="8" fill="white" opacity="0.15"/>
  <text x="140" y="391" font-family="system-ui,sans-serif" font-size="12" fill="white">ค่าเช่าสำนักงาน (ถ้าแยก)</text>
  <rect x="640" y="80" width="500" height="470" rx="24" fill="white" opacity="0.08"/>
  <text x="890" y="190" text-anchor="middle" font-family="system-ui,sans-serif" font-size="26" font-weight="bold" fill="white">ค่าใช้จ่าย</text>
  <text x="890" y="230" text-anchor="middle" font-family="system-ui,sans-serif" font-size="26" font-weight="bold" fill="white">Home Office</text>
  <text x="890" y="290" text-anchor="middle" font-family="system-ui,sans-serif" font-size="18" fill="white" opacity="0.85">หักภาษีได้มั้ย?</text>
  <rect x="790" y="420" width="200" height="50" rx="25" fill="white" opacity="0.2"/>
  <text x="890" y="452" text-anchor="middle" font-family="system-ui,sans-serif" font-size="16" font-weight="bold" fill="white">Finlance.co</text>
</svg>