<svg xmlns="http://www.w3.org/2000/svg" viewBox="0 0 1200 630">
  <rect width="1200" height="630" rx="16" fill="#0f172a"/>
  <text x="600" y="60" text-anchor="middle" font-family="system-ui,sans-serif" font-size="26" font-weight="bold" fill="#f8fafc">เจาะลึกอัตราภาษีก้าวหน้า 2569</text>
  <text x="600" y="95" text-anchor="middle" font-family="system-ui,sans-serif" font-size="16" fill="#94a3b8">เข้าใจให้ถูก: ภาษีก้าวหน้าไม่ได้แปลว่ายิ่งรวยยิ่งจน</text>
  <g transform="translate(100,120)">
    <g font-family="system-ui,sans-serif">
      <rect x="0" y="0" width="1000" height="55" rx="8" fill="#064e3b"/>
      <text x="20" y="35" font-size="14" fill="#34d399">0 - 150,000</text>
      <text x="500" y="35" text-anchor="middle" font-size="16" font-weight="bold" fill="#34d399">ยกเว้นภาษี</text>
      <text x="950" y="35" text-anchor="end" font-size="14" fill="#34d399">0 บาท</text>
      <rect x="0" y="65" width="1000" height="55" rx="8" fill="#1e293b"/>
      <text x="20" y="100" font-size="14" fill="#cbd5e1">150,001 - 300,000</text>
      <text x="500" y="100" text-anchor="middle" font-size="16" font-weight="bold" fill="#60a5fa">5%</text>
      <text x="950" y="100" text-anchor="end" font-size="14" fill="#cbd5e1">สูงสุด 7,500</text>
      <rect x="0" y="130" width="1000" height="55" rx="8" fill="#1e293b"/>
      <text x="20" y="165" font-size="14" fill="#cbd5e1">300,001 - 500,000</text>
      <text x="500" y="165" text-anchor="middle" font-size="16" font-weight="bold" fill="#60a5fa">10%</text>
      <text x="950" y="165" text-anchor="end" font-size="14" fill="#cbd5e1">สูงสุด 20,000</text>
      <rect x="0" y="195" width="1000" height="55" rx="8" fill="#1e293b"/>
      <text x="20" y="230" font-size="14" fill="#cbd5e1">500,001 - 750,000</text>
      <text x="500" y="230" text-anchor="middle" font-size="16" font-weight="bold" fill="#fbbf24">15%</text>
      <text x="950" y="230" text-anchor="end" font-size="14" fill="#cbd5e1">สูงสุด 37,500</text>
      <rect x="0" y="260" width="1000" height="55" rx="8" fill="#1e293b"/>
      <text x="20" y="295" font-size="14" fill="#cbd5e1">750,001 - 1,000,000</text>
      <text x="500" y="295" text-anchor="middle" font-size="16" font-weight="bold" fill="#fbbf24">20%</text>
      <text x="950" y="295" text-anchor="end" font-size="14" fill="#cbd5e1">สูงสุด 50,000</text>
      <rect x="0" y="325" width="1000" height="55" rx="8" fill="#1e293b"/>
      <text x="20" y="360" font-size="14" fill="#cbd5e1">1,000,001 - 2,000,000</text>
      <text x="500" y="360" text-anchor="middle" font-size="16" font-weight="bold" fill="#fb923c">25%</text>
      <text x="950" y="360" text-anchor="end" font-size="14" fill="#cbd5e1">สูงสุด 250,000</text>
      <rect x="0" y="390" width="1000" height="55" rx="8" fill="#422006"/>
      <text x="20" y="425" font-size="14" fill="#fbbf24">2,000,001 - 5,000,000</text>
      <text x="500" y="425" text-anchor="middle" font-size="16" font-weight="bold" fill="#ef4444">30%</text>
      <text x="950" y="425" text-anchor="end" font-size="14" fill="#fbbf24">สูงสุด 900,000</text>
    </g>
  </g>
  <text x="600" y="610" text-anchor="middle" font-family="system-ui,sans-serif" font-size="14" fill="#64748b">finlance.co</text>
</svg>