<svg width="1200" height="630" viewBox="0 0 1200 630" xmlns="http://www.w3.org/2000/svg">
  <rect width="1200" height="630" fill="#0f172a"/>
  <rect x="0" y="0" width="1200" height="4" fill="#60a5fa"/>
  <rect x="700" y="100" width="440" height="430" rx="16" fill="#1e293b" stroke="#334155" stroke-width="1"/>
  <rect x="700" y="100" width="440" height="120" rx="16" fill="#1d4ed8"/>
  <rect x="700" y="184" width="440" height="36" fill="#1d4ed8"/>
  <circle cx="760" cy="220" r="45" fill="#0f172a" stroke="#60a5fa" stroke-width="3"/>
  <text x="760" y="228" font-family="system-ui, sans-serif" font-size="28" text-anchor="middle">👤</text>
  <text x="830" y="225" font-family="system-ui, sans-serif" font-size="18" fill="#f8fafc" font-weight="700">ชื่อ นามสกุล</text>
  <text x="830" y="250" font-family="system-ui, sans-serif" font-size="14" fill="#94a3b8">Senior UX Designer | Bangkok</text>
  <line x1="720" y1="280" x2="1120" y2="280" stroke="#334155" stroke-width="1"/>
  <text x="720" y="310" font-family="system-ui, sans-serif" font-size="14" fill="#60a5fa" font-weight="600">About</text>
  <text x="720" y="335" font-family="system-ui, sans-serif" font-size="13" fill="#94a3b8">Freelance UX Designer ช่วยธุรกิจสร้าง</text>
  <text x="720" y="355" font-family="system-ui, sans-serif" font-size="13" fill="#94a3b8">digital experience ที่แปลง visitor เป็น customer</text>
  <line x1="720" y1="375" x2="1120" y2="375" stroke="#334155" stroke-width="1"/>
  <text x="720" y="400" font-family="system-ui, sans-serif" font-size="14" fill="#60a5fa" font-weight="600">Skills</text>
  <rect x="720" y="415" width="80" height="28" rx="14" fill="#1e3a5f"/>
  <text x="760" y="434" font-family="system-ui, sans-serif" font-size="12" fill="#60a5fa" text-anchor="middle">Figma</text>
  <rect x="810" y="415" width="80" height="28" rx="14" fill="#1e3a5f"/>
  <text x="850" y="434" font-family="system-ui, sans-serif" font-size="12" fill="#60a5fa" text-anchor="middle">UX Research</text>
  <rect x="900" y="415" width="80" height="28" rx="14" fill="#1e3a5f"/>
  <text x="940" y="434" font-family="system-ui, sans-serif" font-size="12" fill="#60a5fa" text-anchor="middle">Prototyping</text>
  <text x="720" y="475" font-family="system-ui, sans-serif" font-size="14" fill="#34d399">✓ Open to Work</text>
  <text x="720" y="500" font-family="system-ui, sans-serif" font-size="13" fill="#94a3b8">500+ connections</text>
  <text x="80" y="120" font-family="system-ui, sans-serif" font-size="42" fill="#f8fafc" font-weight="800">คู่มือ LinkedIn</text>
  <text x="80" y="168" font-family="system-ui, sans-serif" font-size="42" fill="#60a5fa" font-weight="800">สำหรับฟรีแลนซ์ไทย</text>
  <text x="80" y="240" font-family="system-ui, sans-serif" font-size="22" fill="#94a3b8">หาลูกค้าต่างชาติ</text>
  <text x="80" y="275" font-family="system-ui, sans-serif" font-size="22" fill="#94a3b8">โดยไม่ต้อง Cold Call</text>
  <rect x="80" y="320" width="160" height="50" rx="25" fill="#0077b5"/>
  <text x="160" y="352" font-family="system-ui, sans-serif" font-size="18" fill="#fff" font-weight="700" text-anchor="middle">LinkedIn</text>
  <text x="80" y="560" font-family="system-ui, sans-serif" font-size="18" fill="#64748b">finlance.co — คู่มือสำหรับฟรีแลนซ์ไทย</text>
</svg>
