<svg xmlns="http://www.w3.org/2000/svg" viewBox="0 0 1200 630">
  <rect width="1200" height="630" rx="16" fill="#0f172a"/>
  <rect x="60" y="60" width="1080" height="100" rx="12" fill="#1e293b" stroke="#334155" stroke-width="1"/>
  <text x="600" y="105" text-anchor="middle" font-family="system-ui,sans-serif" font-size="22" font-weight="bold" fill="#f97316">Case Study: Digital Marketer ฟรีแลนซ์</text>
  <text x="600" y="140" text-anchor="middle" font-family="system-ui,sans-serif" font-size="14" fill="#94a3b8">จากทำ Social Media สู่ Growth Consultant รายได้หลักแสน</text>
  <g transform="translate(60, 185)">
    <rect width="530" height="390" rx="12" fill="#1e293b" stroke="#334155" stroke-width="1"/>
    <text x="265" y="40" text-anchor="middle" font-family="system-ui,sans-serif" font-size="16" font-weight="bold" fill="#f97316">สายงานที่ทำเงิน</text>
    <g font-family="system-ui,sans-serif" font-size="12" fill="#cbd5e1">
      <rect x="20" y="60" width="490" height="50" rx="8" fill="#0f172a"/>
      <text x="40" y="90">Social Media Management: 10K-30K/เดือน/ลูกค้า</text>
      <rect x="20" y="120" width="490" height="50" rx="8" fill="#0f172a"/>
      <text x="40" y="150">Facebook/Google Ads: 15K-50K/เดือน/ลูกค้า</text>
      <rect x="20" y="180" width="490" height="50" rx="8" fill="#0f172a"/>
      <text x="40" y="210">SEO Consulting: 20K-80K/เดือน/ลูกค้า</text>
      <rect x="20" y="240" width="490" height="50" rx="8" fill="#0f172a"/>
      <text x="40" y="270">Email Marketing: 10K-40K/เดือน/ลูกค้า</text>
      <rect x="20" y="300" width="490" height="50" rx="8" fill="#0f172a"/>
      <text x="40" y="330">Growth Strategy: 50K-150K/โปรเจกต์</text>
    </g>
  </g>
  <g transform="translate(620, 185)">
    <rect width="520" height="390" rx="12" fill="#1e293b" stroke="#334155" stroke-width="1"/>
    <text x="260" y="40" text-anchor="middle" font-family="system-ui,sans-serif" font-size="16" font-weight="bold" fill="#f8fafc">โมเดลรายได้</text>
    <g font-family="system-ui,sans-serif" font-size="12" fill="#cbd5e1">
      <rect x="20" y="60" width="480" height="80" rx="8" fill="#0f172a"/>
      <text x="40" y="90" fill="#f97316" font-weight="bold">Retainer Model (แนะนำ)</text>
      <text x="40" y="115">ลูกค้า 3-5 ราย x 20-50K = 60-250K/เดือน</text>
      <rect x="20" y="150" width="480" height="80" rx="8" fill="#0f172a"/>
      <text x="40" y="180" fill="#34d399" font-weight="bold">Performance-based</text>
      <text x="40" y="205">ค่าบริการ + % ของยอดขายที่เพิ่มขึ้น</text>
      <rect x="20" y="240" width="480" height="80" rx="8" fill="#0f172a"/>
      <text x="40" y="270" fill="#60a5fa" font-weight="bold">Agency Model</text>
      <text x="40" y="295">จ้างทีม + รับลูกค้า 10+ ราย</text>
    </g>
  </g>
  <text x="600" y="610" text-anchor="middle" font-family="system-ui,sans-serif" font-size="14" fill="#64748b">finlance.co</text>
</svg>