<svg xmlns="http://www.w3.org/2000/svg" viewBox="0 0 1200 630">
  <defs>
    <linearGradient id="bg" x1="0%" y1="0%" x2="100%" y2="100%">
      <stop offset="0%" style="stop-color:#6366f1"/>
      <stop offset="100%" style="stop-color:#8b5cf6"/>
    </linearGradient>
  </defs>
  <rect width="1200" height="630" fill="url(#bg)"/>
  <rect x="80" y="80" width="440" height="470" rx="20" fill="white" opacity="0.1"/>
  <text x="300" y="130" text-anchor="middle" font-family="system-ui,sans-serif" font-size="24" font-weight="bold" fill="white">ภ.ง.ด.90</text>
  <rect x="120" y="155" width="360" height="35" rx="8" fill="white" opacity="0.12"/>
  <text x="140" y="178" font-family="system-ui,sans-serif" font-size="14" fill="white" opacity="0.8">ชื่อ-นามสกุล: ________________</text>
  <rect x="120" y="200" width="360" height="35" rx="8" fill="white" opacity="0.12"/>
  <text x="140" y="223" font-family="system-ui,sans-serif" font-size="14" fill="white" opacity="0.8">เลขประจำตัวผู้เสียภาษี: ________</text>
  <rect x="120" y="245" width="360" height="35" rx="8" fill="white" opacity="0.12"/>
  <text x="140" y="268" font-family="system-ui,sans-serif" font-size="14" fill="white" opacity="0.8">รายได้พึงประเมิน: ____________</text>
  <rect x="120" y="290" width="360" height="35" rx="8" fill="white" opacity="0.12"/>
  <text x="140" y="313" font-family="system-ui,sans-serif" font-size="14" fill="white" opacity="0.8">ค่าใช้จ่าย: ________________</text>
  <rect x="120" y="335" width="360" height="35" rx="8" fill="white" opacity="0.12"/>
  <text x="140" y="358" font-family="system-ui,sans-serif" font-size="14" fill="white" opacity="0.8">ค่าลดหย่อน: _______________</text>
  <rect x="120" y="400" width="360" height="50" rx="12" fill="#10b981" opacity="0.3"/>
  <text x="300" y="432" text-anchor="middle" font-family="system-ui,sans-serif" font-size="18" font-weight="bold" fill="white">ยื่นออนไลน์ e-Filing</text>
  <g transform="translate(650,100)">
    <circle cx="200" cy="80" r="60" fill="white" opacity="0.1"/>
    <text x="200" y="70" text-anchor="middle" font-family="system-ui,sans-serif" font-size="36" font-weight="bold" fill="white">1</text>
    <text x="200" y="100" text-anchor="middle" font-family="system-ui,sans-serif" font-size="14" fill="white">รวมรายได้</text>
    <circle cx="200" cy="210" r="60" fill="white" opacity="0.1"/>
    <text x="200" y="200" text-anchor="middle" font-family="system-ui,sans-serif" font-size="36" font-weight="bold" fill="white">2</text>
    <text x="200" y="230" text-anchor="middle" font-family="system-ui,sans-serif" font-size="14" fill="white">หักค่าใช้จ่าย</text>
    <circle cx="200" cy="340" r="60" fill="white" opacity="0.1"/>
    <text x="200" y="330" text-anchor="middle" font-family="system-ui,sans-serif" font-size="36" font-weight="bold" fill="white">3</text>
    <text x="200" y="360" text-anchor="middle" font-family="system-ui,sans-serif" font-size="14" fill="white">กรอก e-Filing</text>
  </g>
  <text x="600" y="565" text-anchor="middle" font-family="system-ui,sans-serif" font-size="28" font-weight="bold" fill="white">ยื่นภาษี ภ.ง.ด.90 สำหรับฟรีแลนซ์</text>
  <text x="600" y="600" text-anchor="middle" font-family="system-ui,sans-serif" font-size="16" fill="white" opacity="0.7">Finlance.co</text>
</svg>