<svg xmlns="http://www.w3.org/2000/svg" viewBox="0 0 1200 630">
  <defs>
    <linearGradient id="bg" x1="0" y1="0" x2="1" y2="1"><stop offset="0%" stop-color="#ec4899"/><stop offset="100%" stop-color="#be185d"/></linearGradient>
  </defs>
  <rect width="1200" height="630" fill="url(#bg)"/>
  <rect x="60" y="80" width="500" height="470" rx="24" fill="white" opacity="0.1"/>
  <text x="310" y="140" text-anchor="middle" font-family="system-ui,sans-serif" font-size="16" font-weight="bold" fill="white">Portfolio ที่ดีต้องมี</text>
  <rect x="100" y="165" width="420" height="45" rx="8" fill="white" opacity="0.15"/>
  <text x="140" y="193" font-family="system-ui,sans-serif" font-size="13" fill="white">✦ Hero section + tagline ชัดเจน</text>
  <rect x="100" y="220" width="420" height="45" rx="8" fill="white" opacity="0.15"/>
  <text x="140" y="248" font-family="system-ui,sans-serif" font-size="13" fill="white">✦ ผลงานเด่น 5-8 ชิ้น + case study</text>
  <rect x="100" y="275" width="420" height="45" rx="8" fill="white" opacity="0.15"/>
  <text x="140" y="303" font-family="system-ui,sans-serif" font-size="13" fill="white">✦ Testimonials จากลูกค้าจริง</text>
  <rect x="100" y="330" width="420" height="45" rx="8" fill="white" opacity="0.15"/>
  <text x="140" y="358" font-family="system-ui,sans-serif" font-size="13" fill="white">✦ ราคาเริ่มต้น + process ทำงาน</text>
  <rect x="100" y="385" width="420" height="45" rx="8" fill="white" opacity="0.15"/>
  <text x="140" y="413" font-family="system-ui,sans-serif" font-size="13" fill="white">✦ CTA ติดต่อง่าย ชัดเจน</text>
  <rect x="640" y="80" width="500" height="470" rx="24" fill="white" opacity="0.08"/>
  <text x="890" y="200" text-anchor="middle" font-family="system-ui,sans-serif" font-size="28" font-weight="bold" fill="white">สร้าง Portfolio</text>
  <text x="890" y="245" text-anchor="middle" font-family="system-ui,sans-serif" font-size="28" font-weight="bold" fill="white">ออนไลน์</text>
  <text x="890" y="305" text-anchor="middle" font-family="system-ui,sans-serif" font-size="18" fill="white" opacity="0.85">ดึงดูดลูกค้าคุณภาพ</text>
  <rect x="790" y="420" width="200" height="50" rx="25" fill="white" opacity="0.2"/>
  <text x="890" y="452" text-anchor="middle" font-family="system-ui,sans-serif" font-size="16" font-weight="bold" fill="white">Finlance.co</text>
</svg>