<svg xmlns="http://www.w3.org/2000/svg" viewBox="0 0 1200 630">
  <rect width="1200" height="630" rx="16" fill="#0f172a"/>
  <rect x="60" y="60" width="500" height="510" rx="12" fill="#1e293b" stroke="#334155" stroke-width="1"/>
  <text x="310" y="120" text-anchor="middle" font-family="system-ui,sans-serif" font-size="22" font-weight="bold" fill="#f59e0b">Q4 Tax Optimization</text>
  <rect x="90" y="150" width="440" height="70" rx="8" fill="#292524"/>
  <text x="110" y="180" font-family="system-ui,sans-serif" font-size="14" fill="#fbbf24">ต.ค.</text>
  <rect x="160" y="165" width="200" height="20" rx="4" fill="#f59e0b" opacity="0.3"/>
  <rect x="160" y="165" width="60" height="20" rx="4" fill="#f59e0b"/>
  <text x="110" y="205" font-family="system-ui,sans-serif" font-size="11" fill="#a8a29e">ทบทวนรายได้ + ค่าลดหย่อน</text>
  <rect x="90" y="235" width="440" height="70" rx="8" fill="#292524"/>
  <text x="110" y="265" font-family="system-ui,sans-serif" font-size="14" fill="#34d399">พ.ย.</text>
  <rect x="160" y="250" width="200" height="20" rx="4" fill="#34d399" opacity="0.3"/>
  <rect x="160" y="250" width="130" height="20" rx="4" fill="#34d399"/>
  <text x="110" y="290" font-family="system-ui,sans-serif" font-size="11" fill="#a8a29e">ซื้อ SSF/RMF/ThaiESG</text>
  <rect x="90" y="320" width="440" height="70" rx="8" fill="#292524"/>
  <text x="110" y="350" font-family="system-ui,sans-serif" font-size="14" fill="#60a5fa">ธ.ค.</text>
  <rect x="160" y="335" width="200" height="20" rx="4" fill="#60a5fa" opacity="0.3"/>
  <rect x="160" y="335" width="200" height="20" rx="4" fill="#60a5fa"/>
  <text x="110" y="375" font-family="system-ui,sans-serif" font-size="11" fill="#a8a29e">ปิดยอด + เตรียมเอกสาร</text>
  <rect x="90" y="410" width="440" height="50" rx="8" fill="#064e3b"/>
  <text x="310" y="442" text-anchor="middle" font-family="system-ui,sans-serif" font-size="14" font-weight="bold" fill="#34d399">เป้าหมาย: ประหยัดภาษีสูงสุด</text>
  <g transform="translate(640, 80)">
    <rect width="480" height="460" rx="12" fill="#1e293b" stroke="#334155" stroke-width="1"/>
    <text x="240" y="50" text-anchor="middle" font-family="system-ui,sans-serif" font-size="18" font-weight="bold" fill="#f8fafc">ค่าลดหย่อนที่ต้องรู้</text>
    <g font-family="system-ui,sans-serif" font-size="13" fill="#cbd5e1">
      <circle cx="40" cy="95" r="8" fill="#f59e0b"/>
      <text x="60" y="100">SSF สูงสุด 200,000 บาท</text>
      <circle cx="40" cy="135" r="8" fill="#34d399"/>
      <text x="60" y="140">RMF สูงสุด 500,000 บาท</text>
      <circle cx="40" cy="175" r="8" fill="#60a5fa"/>
      <text x="60" y="180">ThaiESG สูงสุด 300,000 บาท</text>
      <circle cx="40" cy="215" r="8" fill="#a78bfa"/>
      <text x="60" y="220">ประกันชีวิต 100,000 บาท</text>
      <circle cx="40" cy="255" r="8" fill="#f472b6"/>
      <text x="60" y="260">ประกันสุขภาพ 25,000 บาท</text>
      <circle cx="40" cy="295" r="8" fill="#fb923c"/>
      <text x="60" y="300">เงินบริจาค 2 เท่า (ที่กำหนด)</text>
    </g>
    <rect x="30" y="330" width="420" height="100" rx="8" fill="#0f172a"/>
    <text x="240" y="365" text-anchor="middle" font-family="system-ui,sans-serif" font-size="14" font-weight="bold" fill="#fbbf24">รวมลดหย่อนได้สูงสุด</text>
    <text x="240" y="405" text-anchor="middle" font-family="system-ui,sans-serif" font-size="28" font-weight="bold" fill="#f59e0b">~1,125,000 บาท</text>
  </g>
  <text x="600" y="600" text-anchor="middle" font-family="system-ui,sans-serif" font-size="14" fill="#64748b">finlance.co</text>
</svg>