<svg width="1200" height="630" viewBox="0 0 1200 630" xmlns="http://www.w3.org/2000/svg">
  <rect width="1200" height="630" fill="#0f172a"/>
  <rect x="0" y="0" width="1200" height="4" fill="#f59e0b"/>
  <circle cx="600" cy="315" r="400" fill="#f59e0b" opacity="0.03"/>
  <rect x="100" y="80" width="180" height="180" rx="16" fill="#1e293b" stroke="#ef4444" stroke-width="2"/>
  <text x="190" y="160" font-family="system-ui, sans-serif" font-size="48" text-anchor="middle">🏢</text>
  <text x="190" y="230" font-family="system-ui, sans-serif" font-size="16" fill="#ef4444" text-anchor="middle">พนักงานประจำ</text>
  <path d="M320 170 L480 170" stroke="#f59e0b" stroke-width="3" stroke-dasharray="10,5"/>
  <polygon points="480,165 480,175 495,170" fill="#f59e0b"/>
  <text x="400" y="155" font-family="system-ui, sans-serif" font-size="14" fill="#f59e0b" text-anchor="middle">TRANSITION</text>
  <rect x="520" y="80" width="180" height="180" rx="16" fill="#1e293b" stroke="#34d399" stroke-width="2"/>
  <text x="610" y="160" font-family="system-ui, sans-serif" font-size="48" text-anchor="middle">💻</text>
  <text x="610" y="230" font-family="system-ui, sans-serif" font-size="16" fill="#34d399" text-anchor="middle">ฟรีแลนซ์</text>
  <rect x="780" y="90" width="320" height="50" rx="8" fill="#1e293b"/>
  <text x="800" y="122" font-family="system-ui, sans-serif" font-size="14" fill="#34d399">✓ เตรียมเงินสำรอง 6 เดือน</text>
  <rect x="780" y="150" width="320" height="50" rx="8" fill="#1e293b"/>
  <text x="800" y="182" font-family="system-ui, sans-serif" font-size="14" fill="#60a5fa">✓ หาลูกค้าก่อนลาออก</text>
  <rect x="780" y="210" width="320" height="50" rx="8" fill="#1e293b"/>
  <text x="800" y="242" font-family="system-ui, sans-serif" font-size="14" fill="#f59e0b">✓ จัดการประกันสังคม ม.39</text>
  <text x="80" y="400" font-family="system-ui, sans-serif" font-size="42" fill="#f8fafc" font-weight="800">ลาออกมาเป็นฟรีแลนซ์</text>
  <text x="80" y="450" font-family="system-ui, sans-serif" font-size="42" fill="#f59e0b" font-weight="800">เตรียมตัวยังไงไม่ให้เจ๊ง</text>
  <text x="80" y="560" font-family="system-ui, sans-serif" font-size="18" fill="#64748b">finlance.co — คู่มือสำหรับฟรีแลนซ์ไทย</text>
</svg>