<svg xmlns="http://www.w3.org/2000/svg" viewBox="0 0 1200 630">
  <rect width="1200" height="630" rx="16" fill="#0f172a"/>
  <g transform="translate(60, 60)">
    <rect width="1080" height="200" rx="12" fill="#1e293b" stroke="#334155" stroke-width="1"/>
    <text x="540" y="45" text-anchor="middle" font-family="system-ui,sans-serif" font-size="22" font-weight="bold" fill="#f8fafc">รายได้ฟรีแลนซ์ตลอดปี</text>
    <g font-family="system-ui,sans-serif" font-size="11" fill="#94a3b8">
      <text x="60" y="180">ม.ค.</text><text x="140" y="180">ก.พ.</text><text x="220" y="180">มี.ค.</text>
      <text x="300" y="180">เม.ย.</text><text x="380" y="180">พ.ค.</text><text x="460" y="180">มิ.ย.</text>
      <text x="540" y="180">ก.ค.</text><text x="620" y="180">ส.ค.</text><text x="700" y="180">ก.ย.</text>
      <text x="780" y="180">ต.ค.</text><text x="860" y="180">พ.ย.</text><text x="940" y="180">ธ.ค.</text>
    </g>
    <polyline points="70,100 150,85 230,75 310,110 390,95 470,130 550,145 630,140 710,135 790,80 870,70 950,65" fill="none" stroke="#60a5fa" stroke-width="3"/>
    <rect x="430" y="60" width="240" height="100" rx="6" fill="#7f1d1d" opacity="0.5"/>
    <text x="550" y="90" text-anchor="middle" font-family="system-ui,sans-serif" font-size="12" font-weight="bold" fill="#fca5a5">Low Season Zone</text>
    <text x="550" y="110" text-anchor="middle" font-family="system-ui,sans-serif" font-size="10" fill="#fca5a5">พ.ค. - ก.ย.</text>
  </g>
  <g transform="translate(60, 290)">
    <rect width="340" height="270" rx="12" fill="#1e293b" stroke="#334155" stroke-width="1"/>
    <text x="170" y="40" text-anchor="middle" font-family="system-ui,sans-serif" font-size="16" font-weight="bold" fill="#f59e0b">เตรียมตัวก่อน Low Season</text>
    <g font-family="system-ui,sans-serif" font-size="12" fill="#cbd5e1">
      <text x="30" y="80">1. สำรองเงิน 3-6 เดือน</text>
      <text x="30" y="110">2. หารายได้เสริม</text>
      <text x="30" y="140">3. ลดค่าใช้จ่ายไม่จำเป็น</text>
      <text x="30" y="170">4. Upskill ช่วงว่าง</text>
      <text x="30" y="200">5. สร้าง Passive Income</text>
    </g>
  </g>
  <g transform="translate(430, 290)">
    <rect width="340" height="270" rx="12" fill="#1e293b" stroke="#334155" stroke-width="1"/>
    <text x="170" y="40" text-anchor="middle" font-family="system-ui,sans-serif" font-size="16" font-weight="bold" fill="#34d399">ระหว่าง Low Season</text>
    <g font-family="system-ui,sans-serif" font-size="12" fill="#cbd5e1">
      <text x="30" y="80">1. ใช้เงินสำรองที่เก็บไว้</text>
      <text x="30" y="110">2. หาลูกค้าใหม่เชิงรุก</text>
      <text x="30" y="140">3. สร้าง portfolio/content</text>
      <text x="30" y="170">4. ทำ side project</text>
      <text x="30" y="200">5. networking ออนไลน์</text>
    </g>
  </g>
  <g transform="translate(800, 290)">
    <rect width="340" height="270" rx="12" fill="#1e293b" stroke="#334155" stroke-width="1"/>
    <text x="170" y="40" text-anchor="middle" font-family="system-ui,sans-serif" font-size="16" font-weight="bold" fill="#60a5fa">หลัง Low Season</text>
    <g font-family="system-ui,sans-serif" font-size="12" fill="#cbd5e1">
      <text x="30" y="80">1. ทบทวนบทเรียน</text>
      <text x="30" y="110">2. อัพเดทราคาบริการ</text>
      <text x="30" y="140">3. เปิดรับงานใหม่เต็มที่</text>
      <text x="30" y="170">4. ปรับแผนการเงิน</text>
      <text x="30" y="200">5. เริ่มเก็บสำรองรอบใหม่</text>
    </g>
  </g>
  <text x="600" y="600" text-anchor="middle" font-family="system-ui,sans-serif" font-size="14" fill="#64748b">finlance.co</text>
</svg>