<svg xmlns="http://www.w3.org/2000/svg" viewBox="0 0 1200 630">
  <defs>
    <linearGradient id="bg" x1="0" y1="0" x2="1" y2="1"><stop offset="0%" stop-color="#10b981"/><stop offset="100%" stop-color="#047857"/></linearGradient>
  </defs>
  <rect width="1200" height="630" fill="url(#bg)"/>
  <rect x="60" y="80" width="500" height="470" rx="24" fill="white" opacity="0.1"/>
  <text x="310" y="140" text-anchor="middle" font-family="system-ui,sans-serif" font-size="16" font-weight="bold" fill="white">เปรียบเทียบดอกเบี้ย</text>
  <rect x="100" y="165" width="420" height="45" rx="8" fill="white" opacity="0.15"/>
  <text x="140" y="193" font-family="system-ui,sans-serif" font-size="12" fill="white">ออมทรัพย์ธรรมดา</text>
  <text x="460" y="193" text-anchor="end" font-family="system-ui,sans-serif" font-size="12" fill="white" opacity="0.7">0.25-0.50%</text>
  <rect x="100" y="220" width="420" height="45" rx="8" fill="white" opacity="0.15"/>
  <text x="140" y="248" font-family="system-ui,sans-serif" font-size="12" fill="white">ออมทรัพย์ดิจิทัล</text>
  <text x="460" y="248" text-anchor="end" font-family="system-ui,sans-serif" font-size="12" fill="#34d399">1.50-2.00%</text>
  <rect x="100" y="275" width="420" height="45" rx="8" fill="white" opacity="0.15"/>
  <text x="140" y="303" font-family="system-ui,sans-serif" font-size="12" fill="white">ฝากประจำ 12 เดือน</text>
  <text x="460" y="303" text-anchor="end" font-family="system-ui,sans-serif" font-size="12" fill="#34d399">1.80-2.50%</text>
  <rect x="100" y="330" width="420" height="45" rx="8" fill="white" opacity="0.15"/>
  <text x="140" y="358" font-family="system-ui,sans-serif" font-size="12" fill="white">กองทุนตลาดเงิน</text>
  <text x="460" y="358" text-anchor="end" font-family="system-ui,sans-serif" font-size="12" fill="#34d399">1.50-2.20%</text>
  <rect x="640" y="80" width="500" height="470" rx="24" fill="white" opacity="0.08"/>
  <text x="890" y="190" text-anchor="middle" font-family="system-ui,sans-serif" font-size="26" font-weight="bold" fill="white">บัญชีออมทรัพย์</text>
  <text x="890" y="230" text-anchor="middle" font-family="system-ui,sans-serif" font-size="26" font-weight="bold" fill="white">ดอกเบี้ยสูง 2569</text>
  <text x="890" y="290" text-anchor="middle" font-family="system-ui,sans-serif" font-size="18" fill="white" opacity="0.85">เปิดที่ไหนดี?</text>
  <rect x="790" y="420" width="200" height="50" rx="25" fill="white" opacity="0.2"/>
  <text x="890" y="452" text-anchor="middle" font-family="system-ui,sans-serif" font-size="16" font-weight="bold" fill="white">Finlance.co</text>
</svg>