<svg width="1200" height="630" viewBox="0 0 1200 630" xmlns="http://www.w3.org/2000/svg">
  <rect width="1200" height="630" fill="#0f172a"/>
  <rect x="0" y="0" width="1200" height="4" fill="#f59e0b"/>
  <circle cx="100" cy="530" r="200" fill="#f59e0b" opacity="0.04"/>
  <rect x="660" y="80" width="480" height="480" rx="16" fill="#1e293b" stroke="#334155" stroke-width="1"/>
  <text x="900" y="130" font-family="system-ui, sans-serif" font-size="20" fill="#f59e0b" font-weight="700" text-anchor="middle">ลดหย่อนสูงสุด 2569</text>
  <rect x="680" y="150" width="440" height="50" rx="6" fill="#1a1a2e"/>
  <text x="700" y="180" font-family="system-ui, sans-serif" font-size="15" fill="#94a3b8">ค่าใช้จ่าย (60% หรือตามจริง)</text>
  <text x="1090" y="180" font-family="system-ui, sans-serif" font-size="15" fill="#f59e0b" text-anchor="end">ไม่จำกัด</text>
  <rect x="680" y="210" width="440" height="50" rx="6" fill="#0f172a"/>
  <text x="700" y="240" font-family="system-ui, sans-serif" font-size="15" fill="#94a3b8">ค่าลดหย่อนส่วนตัว</text>
  <text x="1090" y="240" font-family="system-ui, sans-serif" font-size="15" fill="#34d399" text-anchor="end">60,000 บาท</text>
  <rect x="680" y="270" width="440" height="50" rx="6" fill="#1a1a2e"/>
  <text x="700" y="300" font-family="system-ui, sans-serif" font-size="15" fill="#94a3b8">ประกันชีวิต/สุขภาพ</text>
  <text x="1090" y="300" font-family="system-ui, sans-serif" font-size="15" fill="#60a5fa" text-anchor="end">25,000 + 25,000</text>
  <rect x="680" y="330" width="440" height="50" rx="6" fill="#0f172a"/>
  <text x="700" y="360" font-family="system-ui, sans-serif" font-size="15" fill="#94a3b8">SSF / RMF</text>
  <text x="1090" y="360" font-family="system-ui, sans-serif" font-size="15" fill="#a78bfa" text-anchor="end">สูงสุด 30% รายได้</text>
  <rect x="680" y="390" width="440" height="50" rx="6" fill="#1a1a2e"/>
  <text x="700" y="420" font-family="system-ui, sans-serif" font-size="15" fill="#94a3b8">กองทุนประกันสังคม</text>
  <text x="1090" y="420" font-family="system-ui, sans-serif" font-size="15" fill="#34d399" text-anchor="end">9,000 บาท</text>
  <rect x="680" y="450" width="440" height="50" rx="6" fill="#0f172a"/>
  <text x="700" y="480" font-family="system-ui, sans-serif" font-size="15" fill="#94a3b8">Easy e-Receipt 2569</text>
  <text x="1090" y="480" font-family="system-ui, sans-serif" font-size="15" fill="#f59e0b" text-anchor="end">50,000 บาท</text>
  <line x1="680" y1="510" x2="1120" y2="510" stroke="#334155" stroke-width="1"/>
  <text x="700" y="540" font-family="system-ui, sans-serif" font-size="16" fill="#f8fafc" font-weight="700">รวมลดหย่อนได้สูงสุด</text>
  <text x="1090" y="540" font-family="system-ui, sans-serif" font-size="16" fill="#f59e0b" font-weight="700" text-anchor="end">มากกว่า 300,000+</text>
  <text x="80" y="120" font-family="system-ui, sans-serif" font-size="40" fill="#f8fafc" font-weight="800">รวมสิทธิ์ลดหย่อนภาษี</text>
  <text x="80" y="165" font-family="system-ui, sans-serif" font-size="40" fill="#f59e0b" font-weight="800">2569 ครบทุกรายการ</text>
  <text x="80" y="230" font-family="system-ui, sans-serif" font-size="20" fill="#94a3b8">สำหรับฟรีแลนซ์โดยเฉพาะ</text>
  <rect x="80" y="270" width="220" height="50" rx="25" fill="#f59e0b"/>
  <text x="190" y="302" font-family="system-ui, sans-serif" font-size="18" fill="#0f172a" font-weight="700" text-anchor="middle">อัปเดต 2569</text>
  <text x="80" y="560" font-family="system-ui, sans-serif" font-size="18" fill="#64748b">finlance.co — คู่มือสำหรับฟรีแลนซ์ไทย</text>
</svg>
