<svg xmlns="http://www.w3.org/2000/svg" viewBox="0 0 1200 630">
  <defs>
    <linearGradient id="bg" x1="0" y1="0" x2="1" y2="1"><stop offset="0%" stop-color="#f59e0b"/><stop offset="100%" stop-color="#d97706"/></linearGradient>
  </defs>
  <rect width="1200" height="630" fill="url(#bg)"/>
  <rect x="60" y="80" width="500" height="470" rx="24" fill="white" opacity="0.1"/>
  <text x="310" y="140" text-anchor="middle" font-family="system-ui,sans-serif" font-size="18" font-weight="bold" fill="white">Timesheet ตัวอย่าง</text>
  <rect x="100" y="165" width="420" height="35" rx="6" fill="white" opacity="0.2"/>
  <text x="140" y="189" font-family="system-ui,sans-serif" font-size="12" font-weight="bold" fill="white">งาน</text>
  <text x="340" y="189" font-family="system-ui,sans-serif" font-size="12" font-weight="bold" fill="white">ชม.</text>
  <text x="430" y="189" font-family="system-ui,sans-serif" font-size="12" font-weight="bold" fill="white">ค่าบริการ</text>
  <rect x="100" y="205" width="420" height="32" rx="4" fill="white" opacity="0.1"/>
  <text x="140" y="226" font-family="system-ui,sans-serif" font-size="11" fill="white">ออกแบบ UI หน้า Dashboard</text>
  <text x="340" y="226" font-family="system-ui,sans-serif" font-size="11" fill="white">4.5</text>
  <text x="430" y="226" font-family="system-ui,sans-serif" font-size="11" fill="#34d399">4,500</text>
  <rect x="100" y="242" width="420" height="32" rx="4" fill="white" opacity="0.1"/>
  <text x="140" y="263" font-family="system-ui,sans-serif" font-size="11" fill="white">แก้ไข Responsive Mobile</text>
  <text x="340" y="263" font-family="system-ui,sans-serif" font-size="11" fill="white">2.0</text>
  <text x="430" y="263" font-family="system-ui,sans-serif" font-size="11" fill="#34d399">2,000</text>
  <rect x="100" y="279" width="420" height="32" rx="4" fill="white" opacity="0.1"/>
  <text x="140" y="300" font-family="system-ui,sans-serif" font-size="11" fill="white">ประชุม Review กับลูกค้า</text>
  <text x="340" y="300" font-family="system-ui,sans-serif" font-size="11" fill="white">1.0</text>
  <text x="430" y="300" font-family="system-ui,sans-serif" font-size="11" fill="#34d399">1,000</text>
  <rect x="100" y="320" width="420" height="35" rx="6" fill="white" opacity="0.15"/>
  <text x="340" y="343" font-family="system-ui,sans-serif" font-size="12" font-weight="bold" fill="white">7.5</text>
  <text x="430" y="343" font-family="system-ui,sans-serif" font-size="12" font-weight="bold" fill="#34d399">7,500</text>
  <rect x="640" y="80" width="500" height="470" rx="24" fill="white" opacity="0.08"/>
  <text x="890" y="200" text-anchor="middle" font-family="system-ui,sans-serif" font-size="28" font-weight="bold" fill="white">บันทึกเวลาทำงาน</text>
  <text x="890" y="245" text-anchor="middle" font-family="system-ui,sans-serif" font-size="28" font-weight="bold" fill="white">คิดค่าบริการรายชั่วโมง</text>
  <text x="890" y="310" text-anchor="middle" font-family="system-ui,sans-serif" font-size="18" fill="white" opacity="0.85">ยังไงให้ยุติธรรม</text>
  <rect x="790" y="420" width="200" height="50" rx="25" fill="white" opacity="0.2"/>
  <text x="890" y="452" text-anchor="middle" font-family="system-ui,sans-serif" font-size="16" font-weight="bold" fill="white">Finlance.co</text>
</svg>