<svg xmlns="http://www.w3.org/2000/svg" viewBox="0 0 1200 630">
  <rect width="1200" height="630" rx="16" fill="#0f172a"/>
  <rect x="60" y="60" width="1080" height="100" rx="12" fill="#1e293b" stroke="#334155" stroke-width="1"/>
  <text x="600" y="105" text-anchor="middle" font-family="system-ui,sans-serif" font-size="22" font-weight="bold" fill="#a78bfa">Case Study: Video Editor ฟรีแลนซ์</text>
  <text x="600" y="140" text-anchor="middle" font-family="system-ui,sans-serif" font-size="14" fill="#94a3b8">จากตัดวิดีโอ 1,500/คลิป สู่ Post-Production Studio</text>
  <g transform="translate(60, 185)">
    <rect width="530" height="390" rx="12" fill="#1e293b" stroke="#334155" stroke-width="1"/>
    <text x="265" y="40" text-anchor="middle" font-family="system-ui,sans-serif" font-size="16" font-weight="bold" fill="#a78bfa">ประเภทงานและราคา</text>
    <g font-family="system-ui,sans-serif" font-size="12" fill="#cbd5e1">
      <rect x="20" y="60" width="490" height="50" rx="8" fill="#0f172a"/>
      <text x="40" y="90">YouTube Video: 1,500-10,000/คลิป (10-20 นาที)</text>
      <rect x="20" y="120" width="490" height="50" rx="8" fill="#0f172a"/>
      <text x="40" y="150">TikTok/Reels: 500-3,000/คลิป (30-60 วินาที)</text>
      <rect x="20" y="180" width="490" height="50" rx="8" fill="#0f172a"/>
      <text x="40" y="210">Corporate Video: 10,000-50,000/ชิ้น</text>
      <rect x="20" y="240" width="490" height="50" rx="8" fill="#0f172a"/>
      <text x="40" y="270">Wedding Video: 15,000-80,000/งาน</text>
      <rect x="20" y="300" width="490" height="50" rx="8" fill="#0f172a"/>
      <text x="40" y="330">Motion Graphics: 5,000-30,000/ชิ้น</text>
    </g>
  </g>
  <g transform="translate(620, 185)">
    <rect width="520" height="390" rx="12" fill="#1e293b" stroke="#334155" stroke-width="1"/>
    <text x="260" y="40" text-anchor="middle" font-family="system-ui,sans-serif" font-size="16" font-weight="bold" fill="#f8fafc">ค่าใช้จ่ายและการลงทุน</text>
    <g font-family="system-ui,sans-serif" font-size="12" fill="#cbd5e1">
      <rect x="20" y="60" width="480" height="50" rx="8" fill="#0f172a"/>
      <text x="40" y="90">PC/Mac ตัดต่อ: 50,000-150,000 (ทุก 3-4 ปี)</text>
      <rect x="20" y="120" width="480" height="50" rx="8" fill="#0f172a"/>
      <text x="40" y="150">Adobe CC/DaVinci: 1,500-3,000/เดือน</text>
      <rect x="20" y="180" width="480" height="50" rx="8" fill="#0f172a"/>
      <text x="40" y="210">Stock footage/music: 1,000-5,000/เดือน</text>
      <rect x="20" y="240" width="480" height="50" rx="8" fill="#0f172a"/>
      <text x="40" y="270">Storage/Backup: 500-2,000/เดือน</text>
      <rect x="20" y="300" width="480" height="50" rx="8" fill="#0f172a"/>
      <text x="40" y="330">Plugin/Template: 500-3,000/เดือน</text>
    </g>
  </g>
  <text x="600" y="610" text-anchor="middle" font-family="system-ui,sans-serif" font-size="14" fill="#64748b">finlance.co</text>
</svg>