<svg xmlns="http://www.w3.org/2000/svg" viewBox="0 0 1200 630">
  <defs>
    <linearGradient id="bg" x1="0%" y1="0%" x2="100%" y2="100%">
      <stop offset="0%" style="stop-color:#0ea5e9"/>
      <stop offset="100%" style="stop-color:#6366f1"/>
    </linearGradient>
  </defs>
  <rect width="1200" height="630" rx="0" fill="url(#bg)"/>
  <rect x="60" y="60" width="500" height="510" rx="24" fill="white" opacity="0.1"/>
  <rect x="90" y="100" width="440" height="60" rx="12" fill="white" opacity="0.15"/>
  <rect x="90" y="180" width="440" height="40" rx="8" fill="white" opacity="0.1"/>
  <rect x="90" y="235" width="440" height="40" rx="8" fill="white" opacity="0.1"/>
  <rect x="90" y="290" width="440" height="40" rx="8" fill="white" opacity="0.1"/>
  <rect x="90" y="345" width="300" height="40" rx="8" fill="white" opacity="0.1"/>
  <text x="110" y="140" font-family="system-ui,sans-serif" font-size="22" font-weight="bold" fill="white">หนังสือรับรองหัก ณ ที่จ่าย</text>
  <text x="110" y="207" font-family="system-ui,sans-serif" font-size="16" fill="white" opacity="0.8">ผู้จ่ายเงิน: บริษัท ABC จำกัด</text>
  <text x="110" y="262" font-family="system-ui,sans-serif" font-size="16" fill="white" opacity="0.8">ผู้รับเงิน: นายฟรีแลนซ์ ไทย</text>
  <text x="110" y="317" font-family="system-ui,sans-serif" font-size="16" fill="white" opacity="0.8">จำนวนเงิน: 50,000 บาท</text>
  <text x="110" y="372" font-family="system-ui,sans-serif" font-size="16" fill="white" opacity="0.8">ภาษีหัก: 1,500 บาท (3%)</text>
  <rect x="90" y="420" width="200" height="50" rx="12" fill="#10b981"/>
  <text x="190" y="452" text-anchor="middle" font-family="system-ui,sans-serif" font-size="18" font-weight="bold" fill="white">50 ทวิ</text>
  <circle cx="850" cy="200" r="120" fill="white" opacity="0.1"/>
  <text x="850" y="190" text-anchor="middle" font-family="system-ui,sans-serif" font-size="64" font-weight="bold" fill="white">3%</text>
  <text x="850" y="230" text-anchor="middle" font-family="system-ui,sans-serif" font-size="18" fill="white" opacity="0.8">อัตราหัก ณ ที่จ่าย</text>
  <text x="850" y="380" text-anchor="middle" font-family="system-ui,sans-serif" font-size="28" font-weight="bold" fill="white">ภาษีหัก ณ ที่จ่าย</text>
  <text x="850" y="420" text-anchor="middle" font-family="system-ui,sans-serif" font-size="20" fill="white" opacity="0.8">คู่มือฉบับสมบูรณ์สำหรับฟรีแลนซ์</text>
  <rect x="700" y="460" width="300" height="50" rx="14" fill="white" opacity="0.15"/>
  <text x="850" y="492" text-anchor="middle" font-family="system-ui,sans-serif" font-size="18" fill="white">Finlance.co</text>
</svg>