<svg xmlns="http://www.w3.org/2000/svg" viewBox="0 0 1200 630">
  <rect width="1200" height="630" rx="16" fill="#0f172a"/>
  <rect x="60" y="60" width="1080" height="100" rx="12" fill="#1e293b" stroke="#334155" stroke-width="1"/>
  <text x="600" y="105" text-anchor="middle" font-family="system-ui,sans-serif" font-size="22" font-weight="bold" fill="#34d399">Case Study: Writer/Copywriter ฟรีแลนซ์</text>
  <text x="600" y="140" text-anchor="middle" font-family="system-ui,sans-serif" font-size="14" fill="#94a3b8">จากเขียนบทความคำละบาทสู่ Content Strategist หกหลัก</text>
  <g transform="translate(60, 185)">
    <rect width="350" height="390" rx="12" fill="#1e293b" stroke="#334155" stroke-width="1"/>
    <text x="175" y="40" text-anchor="middle" font-family="system-ui,sans-serif" font-size="15" font-weight="bold" fill="#34d399">เส้นทางเติบโต</text>
    <g font-family="system-ui,sans-serif" font-size="11" fill="#cbd5e1">
      <rect x="20" y="55" width="310" height="60" rx="6" fill="#0f172a"/>
      <text x="35" y="78" fill="#94a3b8">ปีที่ 1: Content Writer</text>
      <text x="35" y="100" fill="#34d399">0.5-1 บาท/คำ → 15,000-25,000/เดือน</text>
      <rect x="20" y="125" width="310" height="60" rx="6" fill="#0f172a"/>
      <text x="35" y="148" fill="#94a3b8">ปีที่ 2: Copywriter</text>
      <text x="35" y="170" fill="#60a5fa">2-5 บาท/คำ → 40,000-60,000/เดือน</text>
      <rect x="20" y="195" width="310" height="60" rx="6" fill="#0f172a"/>
      <text x="35" y="218" fill="#94a3b8">ปีที่ 3: SEO + Conversion</text>
      <text x="35" y="240" fill="#f59e0b">5-10 บาท/คำ → 80,000-120,000/เดือน</text>
      <rect x="20" y="265" width="310" height="60" rx="6" fill="#0f172a"/>
      <text x="35" y="288" fill="#94a3b8">ปีที่ 5: Content Strategist</text>
      <text x="35" y="310" fill="#a78bfa">Retainer 30K-80K/ลูกค้า/เดือน</text>
    </g>
  </g>
  <g transform="translate(430, 185)">
    <rect width="350" height="390" rx="12" fill="#1e293b" stroke="#334155" stroke-width="1"/>
    <text x="175" y="40" text-anchor="middle" font-family="system-ui,sans-serif" font-size="15" font-weight="bold" fill="#f59e0b">แหล่งรายได้</text>
    <g font-family="system-ui,sans-serif" font-size="11" fill="#cbd5e1">
      <rect x="20" y="55" width="310" height="45" rx="6" fill="#0f172a"/>
      <text x="35" y="83">Copywriting: 3,000-50,000/ชิ้น</text>
      <rect x="20" y="110" width="310" height="45" rx="6" fill="#0f172a"/>
      <text x="35" y="138">SEO Content: 2,000-15,000/บทความ</text>
      <rect x="20" y="165" width="310" height="45" rx="6" fill="#0f172a"/>
      <text x="35" y="193">Content Retainer: 20K-80K/เดือน</text>
      <rect x="20" y="220" width="310" height="45" rx="6" fill="#0f172a"/>
      <text x="35" y="248">E-book/Course: Passive Income</text>
      <rect x="20" y="275" width="310" height="45" rx="6" fill="#0f172a"/>
      <text x="35" y="303">Ghost Writing: 10K-100K/ชิ้น</text>
    </g>
  </g>
  <g transform="translate(800, 185)">
    <rect width="340" height="390" rx="12" fill="#1e293b" stroke="#334155" stroke-width="1"/>
    <text x="170" y="40" text-anchor="middle" font-family="system-ui,sans-serif" font-size="15" font-weight="bold" fill="#60a5fa">การจัดการเงิน</text>
    <g font-family="system-ui,sans-serif" font-size="11" fill="#cbd5e1">
      <rect x="20" y="55" width="300" height="45" rx="6" fill="#0f172a"/>
      <text x="35" y="83">ค่าใช้จ่ายต่ำ: แค่คอม+เน็ต</text>
      <rect x="20" y="110" width="300" height="45" rx="6" fill="#0f172a"/>
      <text x="35" y="138">Margin สูง: 80-90% ของรายได้</text>
      <rect x="20" y="165" width="300" height="45" rx="6" fill="#0f172a"/>
      <text x="35" y="193">ออมได้เยอะ: เป้า 30%+</text>
      <rect x="20" y="220" width="300" height="45" rx="6" fill="#0f172a"/>
      <text x="35" y="248">ภาษี: หักเหมา 60% คุ้มสุด</text>
      <rect x="20" y="275" width="300" height="45" rx="6" fill="#0f172a"/>
      <text x="35" y="303">ลงทุน: SSF + RMF + ThaiESG</text>
    </g>
  </g>
  <text x="600" y="610" text-anchor="middle" font-family="system-ui,sans-serif" font-size="14" fill="#64748b">finlance.co</text>
</svg>