<svg xmlns="http://www.w3.org/2000/svg" viewBox="0 0 1200 630">
  <defs>
    <linearGradient id="bg" x1="0" y1="0" x2="1" y2="1"><stop offset="0%" stop-color="#f59e0b"/><stop offset="100%" stop-color="#d97706"/></linearGradient>
  </defs>
  <rect width="1200" height="630" fill="url(#bg)"/>
  <rect x="60" y="80" width="500" height="470" rx="24" fill="white" opacity="0.1"/>
  <text x="310" y="140" text-anchor="middle" font-family="system-ui,sans-serif" font-size="18" font-weight="bold" fill="white">10 วิธีลดภาษี</text>
  <g font-family="system-ui,sans-serif" font-size="13" fill="white">
    <rect x="100" y="165" width="200" height="40" rx="8" fill="white" opacity="0.15"/>
    <text x="200" y="191" text-anchor="middle">1. SSF/RMF</text>
    <rect x="310" y="165" width="200" height="40" rx="8" fill="white" opacity="0.15"/>
    <text x="410" y="191" text-anchor="middle">2. ประกันชีวิต</text>
    <rect x="100" y="215" width="200" height="40" rx="8" fill="white" opacity="0.15"/>
    <text x="200" y="241" text-anchor="middle">3. ประกันสุขภาพ</text>
    <rect x="310" y="215" width="200" height="40" rx="8" fill="white" opacity="0.15"/>
    <text x="410" y="241" text-anchor="middle">4. ประกันสังคม</text>
    <rect x="100" y="265" width="200" height="40" rx="8" fill="white" opacity="0.15"/>
    <text x="200" y="291" text-anchor="middle">5. เงินบริจาค</text>
    <rect x="310" y="265" width="200" height="40" rx="8" fill="white" opacity="0.15"/>
    <text x="410" y="291" text-anchor="middle">6. ThaiESG</text>
    <rect x="100" y="315" width="200" height="40" rx="8" fill="white" opacity="0.15"/>
    <text x="200" y="341" text-anchor="middle">7. ดอกเบี้ยบ้าน</text>
    <rect x="310" y="315" width="200" height="40" rx="8" fill="white" opacity="0.15"/>
    <text x="410" y="341" text-anchor="middle">8. ช้อปดีมีคืน</text>
    <rect x="100" y="365" width="200" height="40" rx="8" fill="white" opacity="0.15"/>
    <text x="200" y="391" text-anchor="middle">9. เงินออม</text>
    <rect x="310" y="365" width="200" height="40" rx="8" fill="white" opacity="0.15"/>
    <text x="410" y="391" text-anchor="middle">10. หักค่าใช้จ่าย</text>
  </g>
  <rect x="640" y="80" width="500" height="470" rx="24" fill="white" opacity="0.08"/>
  <text x="890" y="200" text-anchor="middle" font-family="system-ui,sans-serif" font-size="28" font-weight="bold" fill="white">วางแผนภาษี</text>
  <text x="890" y="245" text-anchor="middle" font-family="system-ui,sans-serif" font-size="28" font-weight="bold" fill="white">ก่อนสิ้นปี</text>
  <text x="890" y="305" text-anchor="middle" font-family="system-ui,sans-serif" font-size="18" fill="white" opacity="0.85">10 วิธีลดภาษีถูกกฎหมาย</text>
  <rect x="790" y="420" width="200" height="50" rx="25" fill="white" opacity="0.2"/>
  <text x="890" y="452" text-anchor="middle" font-family="system-ui,sans-serif" font-size="16" font-weight="bold" fill="white">Finlance.co</text>
</svg>